<svg width="20" height="20" fill="none" xmlns="http://www.w3.org/2000/svg"><path d="M10 2.5a3.76 3.76 0 00-3.75 3.75 3.74 3.74 0 001.484 2.969c-1.005.44-1.838 1.184-2.441 2.11-.53.18-.93.7-.84 1.308h-.02l.157 1.172c-.83.193-1.465.932-1.465 1.816 0 1.028.847 1.875 1.875 1.875h10a1.885 1.885 0 001.875-1.875c0-.913-.674-1.675-1.543-1.836l.156-1.133v-.02c.086-.57-.26-1.059-.742-1.269a5.813 5.813 0 00-2.48-2.129A3.754 3.754 0 0013.75 6.25 3.76 3.76 0 0010 2.5zm0 1.25c1.39 0 2.5 1.11 2.5 2.5s-1.11 2.5-2.5 2.5a2.49 2.49 0 01-2.5-2.5c0-1.39 1.11-2.5 2.5-2.5zM10 10c1.182 0 2.256.488 3.047 1.25H6.914C7.708 10.461 8.791 10 10 10zm-4.316 2.5h8.574l-.508 3.73v.02H6.191c.008 0 0-.017 0-.02l-.507-3.73zm7.441.625a.626.626 0 00-.625.625.626.626 0 001.25 0 .626.626 0 00-.625-.625zm2.05 1.914c.257.078.45.303.45.586a.623.623 0 01-.625.625l.176-1.21zm-10.41.02l.157 1.171a.617.617 0 01-.547-.605.62.62 0 01.39-.566z" fill="#109CF1"/></svg>