<svg width="20" height="20" fill="none" xmlns="http://www.w3.org/2000/svg"><path d="M11.25 2.5c-2.29 0-4.028.54-5.195 1.64-1.167 1.102-1.68 2.708-1.68 4.61v.566c-.359.34-.625.777-.625 1.309 0 .786.557 1.348 1.25 1.621.232.73.483 1.497.762 2.149.305.712.578 1.279.957 1.68a4.495 4.495 0 006.562 0c.379-.401.633-.968.938-1.68.278-.652.55-1.419.781-2.149.693-.273 1.25-.835 1.25-1.621 0-.53-.269-.967-.625-1.309V8.75c0-1.765-.403-3.022-1.113-3.848-.603-.7-1.409-.986-2.207-1.074L11.64 2.5h-.391zm-.371 1.29l.43.858c.207.418.29.713.293.84.002.127.007.076-.02.098-.054.046-.581.18-1.23.215-.65.034-1.416.017-2.13.293-.712.276-1.34 1.018-1.347 2.031h1.25c.005-.615.149-.706.547-.86.398-.153 1.086-.2 1.758-.234.671-.034 1.364.008 1.953-.488.293-.247.48-.674.469-1.094-.003-.093-.025-.18-.04-.273.272.115.523.29.743.547.454.527.82 1.452.82 3.027v1.152l.313.176c.19.11.312.31.312.547 0 .335-.24.598-.566.625l-.43.02-.117.41a23.94 23.94 0 01-.801 2.207c-.28.661-.603 1.223-.703 1.328-1.33 1.406-3.435 1.406-4.766 0-.1-.105-.422-.667-.703-1.328a23.96 23.96 0 01-.8-2.207l-.118-.41-.43-.02A.612.612 0 015 10.625a.62.62 0 01.313-.547l.312-.176V8.75c0-1.685.427-2.898 1.29-3.71.8-.758 2.106-1.187 3.964-1.25zM8.125 10a.626.626 0 000 1.25.626.626 0 000-1.25zm3.75 0a.626.626 0 00-.625.625.626.626 0 001.25 0 .626.626 0 00-.625-.625z" fill="#109CF1"/></svg>