<svg width="20" height="20" fill="none" xmlns="http://www.w3.org/2000/svg"><path d="M10 2.5A2.508 2.508 0 007.5 5c0 .647.256 1.233.664 1.68a4.24 4.24 0 00-.703.449A2.498 2.498 0 005 5a2.508 2.508 0 00-2.5 2.5c0 .666.271 1.27.703 1.719a3.864 3.864 0 00-.469.293A3.75 3.75 0 001.25 12.5H2.5c0-.818.393-1.536.996-1.992C3.916 10.19 4.431 10 5 10c.388 0 .752.105 1.094.273l.683.332.196-.742a3.125 3.125 0 016.054-.02l.196.762.683-.351A2.45 2.45 0 0115 10c1.387 0 2.5 1.113 2.5 2.5h1.25a3.762 3.762 0 00-1.953-3.281c.432-.45.703-1.053.703-1.719C17.5 6.125 16.375 5 15 5c-1.248 0-2.28.928-2.46 2.129a4.24 4.24 0 00-.704-.45A2.486 2.486 0 0012.5 5c0-1.375-1.126-2.5-2.5-2.5zm0 1.25c.698 0 1.25.552 1.25 1.25A1.24 1.24 0 0110 6.25 1.24 1.24 0 018.75 5c0-.698.552-1.25 1.25-1.25zm-5 2.5c.698 0 1.25.552 1.25 1.25A1.24 1.24 0 015 8.75 1.24 1.24 0 013.75 7.5c0-.698.552-1.25 1.25-1.25zm10 0c.698 0 1.25.552 1.25 1.25A1.24 1.24 0 0115 8.75a1.24 1.24 0 01-1.25-1.25c0-.698.552-1.25 1.25-1.25zM10 10a2.508 2.508 0 00-2.5 2.5c0 .666.271 1.27.703 1.719A3.762 3.762 0 006.25 17.5H7.5c0-1.387 1.113-2.5 2.5-2.5s2.5 1.113 2.5 2.5h1.25a3.762 3.762 0 00-1.953-3.281c.432-.45.703-1.053.703-1.719 0-1.374-1.126-2.5-2.5-2.5zm0 1.25c.698 0 1.25.552 1.25 1.25A1.24 1.24 0 0110 13.75a1.24 1.24 0 01-1.25-1.25c0-.698.552-1.25 1.25-1.25z" fill="#109CF1"/></svg>