<svg width="20" height="20" fill="none" xmlns="http://www.w3.org/2000/svg"><path d="M7.188 3.75A2.196 2.196 0 005 5.938c0 1.2.986 2.187 2.188 2.187a2.196 2.196 0 002.187-2.188A2.196 2.196 0 007.187 3.75zm5.625 0a2.196 2.196 0 00-2.188 2.188c0 1.2.986 2.187 2.188 2.187A2.196 2.196 0 0015 5.937a2.196 2.196 0 00-2.188-2.187zM7.186 5a.93.93 0 01.938.938.929.929 0 01-.938.937.929.929 0 01-.937-.938c0-.524.413-.937.938-.937zm5.625 0a.93.93 0 01.938.938.929.929 0 01-.938.937.929.929 0 01-.937-.938c0-.524.413-.937.938-.937zM4.376 7.5a2.508 2.508 0 00-2.5 2.5c0 .696.298 1.323.762 1.777a3.148 3.148 0 00-1.387 2.598H2.5c0-1.043.833-1.875 1.875-1.875s1.875.832 1.875 1.875H7.5a3.148 3.148 0 00-1.387-2.598A2.487 2.487 0 006.875 10c0-1.375-1.125-2.5-2.5-2.5zM7.5 14.375a3.14 3.14 0 00-.625 1.875h1.25c0-1.043.833-1.875 1.875-1.875 1.043 0 1.875.832 1.875 1.875h1.25a3.14 3.14 0 00-1.387-2.598 2.487 2.487 0 00.762-1.777c0-1.374-1.126-2.5-2.5-2.5a2.508 2.508 0 00-2.5 2.5c0 .696.298 1.323.762 1.777-.293.198-.55.44-.762.723zm5 0h1.25c0-1.043.832-1.875 1.875-1.875 1.043 0 1.875.832 1.875 1.875h1.25a3.148 3.148 0 00-1.387-2.598A2.487 2.487 0 0018.125 10c0-1.375-1.125-2.5-2.5-2.5a2.508 2.508 0 00-2.5 2.5c0 .696.298 1.323.762 1.777a3.148 3.148 0 00-1.387 2.598zM4.375 8.75c.698 0 1.25.552 1.25 1.25a1.24 1.24 0 01-1.25 1.25A1.24 1.24 0 013.125 10c0-.698.552-1.25 1.25-1.25zm11.25 0c.698 0 1.25.552 1.25 1.25a1.24 1.24 0 01-1.25 1.25 1.24 1.24 0 01-1.25-1.25c0-.698.552-1.25 1.25-1.25zM10 10.625c.698 0 1.25.552 1.25 1.25a1.24 1.24 0 01-1.25 1.25 1.24 1.24 0 01-1.25-1.25c0-.698.552-1.25 1.25-1.25z" fill="#109CF1"/></svg>