<svg width="20" height="20" fill="none" xmlns="http://www.w3.org/2000/svg"><path d="M7.5 1.25a4.383 4.383 0 00-4.375 4.375 4.39 4.39 0 001.934 3.633C2.829 10.215 1.25 12.427 1.25 15H2.5c0-2.769 2.231-5 5-5 .86 0 1.66.225 2.363.605A5.004 5.004 0 008.75 13.75c0 2.754 2.246 5 5 5s5-2.246 5-5-2.246-5-5-5a4.978 4.978 0 00-2.93.957 6.338 6.338 0 00-.879-.45 4.39 4.39 0 001.934-3.632A4.383 4.383 0 007.5 1.25zm0 1.25a3.115 3.115 0 013.125 3.125A3.115 3.115 0 017.5 8.75a3.115 3.115 0 01-3.125-3.125A3.115 3.115 0 017.5 2.5zm6.25 7.5a3.742 3.742 0 013.75 3.75 3.742 3.742 0 01-3.75 3.75A3.742 3.742 0 0110 13.75 3.742 3.742 0 0113.75 10zm2.05 2.05l-2.05 2.052-1.426-1.426-.898.898L13.3 15.45l.449.43.45-.43 2.5-2.5-.9-.898z" fill="#109CF1"/></svg>