<svg width="594" height="545" fill="none" xmlns="http://www.w3.org/2000/svg"><g clip-path="url(#clip0_6_351)"><path d="M459.214 47.26c72.719-26.495 101.451 98.433 104.643 180.722-2.67 1.787 9.884-4.036 18.633-13.833 11.265-12.601 11.48-29.699 11.511-38.757.215-75.881-83.156-168.8-134.787-128.132z" fill="#ABCFFA"/><path d="M511.766 52.405c40.795 23.63 73.762 80.964 73.609 128.009-.123 47.044-33.305 66.053-74.101 42.392-40.825-23.661-73.762-80.964-73.639-128.009.153-47.044 33.336-66.022 74.131-42.392z" fill="#D6F0FF"/><path d="M511.735 68.179c33.244 19.255 60.133 65.991 60.011 104.348-.123 38.356-27.136 53.822-60.41 34.567-33.275-19.286-60.134-65.992-60.011-104.348.092-38.357 27.135-53.853 60.41-34.567z" fill="#fff"/><path d="M478.306 107.953c5.157 2.988 8.534 8.441 8.534 13.802-.031 5.976-3.039 6.315-10.621 8.657l10.836 6.285-.031 5.453-18.387-10.66v-4.991c10.621-3.882 12.616-4.036 12.616-7.425 0-2.434-1.381-4.529-3.315-5.668-1.903-1.11-3.223-.647-5.096.893l-3.806-5.792c2.456-2.403 4.85-3.112 9.27-.554zm53.35 27.296l-15.839 28.806-4.574-2.65 15.839-28.806 4.574 2.65zm-23.759 7.64l3.345 1.941v5.114l-3.345-1.941-.031 6.193-5.218-3.019.03-6.193-12.155-7.055-.86-4.991 13.691-10.321 4.604 2.681-.061 17.591zm-5.219-3.019l.031-8.934-6.63 5.083 6.599 3.851zm48.44 10.66l-.031 4.775-11.204 17.437-6.17-3.573 11.173-16.76-11.695-6.778.031-5.453 17.896 10.352z" fill="#8FD6FF"/><path d="M307.115 372.35a1.56 1.56 0 01.552-2.126c92.488-53.791 87.269-51.265 88.497-50.526l57.156 33.797 56.42-33.026c0-106.567-.706-101.206 1.565-101.206 2.272 0 1.566-5.361 1.566 102.099 0 1.294 3.806-1.325-58.753 35.276-1.228.708 2.456 2.372-58.721-33.828l-86.134 50.094c-.767.432-1.718.185-2.148-.554z" fill="#D6F0FF"/><path d="M441.011 404.175c9.976 5.792 10.037 15.158.123 20.95l-114.282 66.669c-9.915 5.792-26.061 5.792-36.037 0L27.965 339.477c-9.977-5.792-10.038-15.157-.123-20.949l114.312-66.67c9.915-5.792 26.061-5.792 36.068 0l262.789 152.317z" fill="#D6F0FF"/><path fill-rule="evenodd" clip-rule="evenodd" d="M35.484 164.424s9.946 150.561 10.468 176.409c1.227.678 2.455 1.355 3.714 2.033l.153-169.785-14.335-8.657z" fill="#7CB4F7"/><path fill-rule="evenodd" clip-rule="evenodd" d="M63.848 164.424S53.902 314.985 53.38 340.833a405.422 405.422 0 01-3.714 2.033l-.153-169.785 14.335-8.657z" fill="#4B6CCC"/><path d="M63.847 164.424l-14.273 8.164-14.09-8.164 13.997-8.133 14.366 8.133zm123.276-71.629l-14.274 8.164-14.059-8.164 13.967-8.165 14.366 8.165z" fill="#fff"/><path fill-rule="evenodd" clip-rule="evenodd" d="M158.575 92.826s9.945 135.156 10.467 161.004c1.228.678 2.456 1.356 3.715 2.033l.122-154.38-14.304-8.657z" fill="#7CB4F7"/><path fill-rule="evenodd" clip-rule="evenodd" d="M186.938 92.826s-9.945 135.156-10.467 161.004a391.02 391.02 0 01-3.714 2.033l-.123-154.38 14.304-8.657z" fill="#4B6CCC"/><path fill-rule="evenodd" clip-rule="evenodd" d="M307.297 348.843L38.614 193.168v-13.216L307.728 333.87l-.43 14.973z" fill="#7CB4F7"/><path fill-rule="evenodd" clip-rule="evenodd" d="M293.362 314.307s9.945 150.56 10.467 176.408c1.228.678 2.456 1.356 3.714 2.034l.123-169.785-14.304-8.657z" fill="#7CB4F7"/><path fill-rule="evenodd" clip-rule="evenodd" d="M321.725 314.307s-9.945 150.56-10.467 176.408c-1.228.678-2.456 1.356-3.715 2.034l-.122-169.785 14.304-8.657z" fill="#4B6CCC"/><path d="M321.725 314.307l-14.274 8.164-14.089-8.164 13.997-8.164 14.366 8.164zM445 242.677l-14.273 8.165-14.059-8.165 13.966-8.164L445 242.677z" fill="#fff"/><path fill-rule="evenodd" clip-rule="evenodd" d="M416.453 242.708s9.945 150.561 10.467 176.409a414.83 414.83 0 003.714 2.033l.154-169.785-14.335-8.657z" fill="#7CB4F7"/><path fill-rule="evenodd" clip-rule="evenodd" d="M444.816 242.708s-9.946 150.561-10.468 176.409a401.449 401.449 0 01-3.714 2.033l-.123-169.785 14.305-8.657z" fill="#4B6CCC"/><path fill-rule="evenodd" clip-rule="evenodd" d="M431.956 277.029l-124.657 72.215v-11.215l124.657-72.245v11.245z" fill="#4B6CCC"/><path d="M447.396 233.312c9.976 5.792 10.038 15.157.123 20.949l-114.282 66.67c-9.915 5.792-26.061 5.792-36.037 0L34.35 168.645c-9.977-5.792-10.038-15.158-.123-20.95l114.312-66.669c9.915-5.792 26.061-5.792 36.068 0l262.789 152.286z" fill="#E0EBFF"/><path d="M447.518 254.292c-124.902 72.862-117.689 70.49-130.704 70.952-16.269.585-1.688 6.1-282.465-156.599-3.93-2.28-7.551-6.008-7.52-10.536-.031 8.472-.093 8.872.122 10.166.706 3.913 3.99 7.025 7.398 8.996 279.304 161.868 264.784 154.504 273.594 156.014 8.38 1.417 18.234.37 25.263-3.728l114.282-66.669c8.809-5.145 7.397-10.198 7.428-19.009 0 3.759-2.486 7.517-7.398 10.413z" fill="#ABCFFA"/><path d="M460.595 477.068c19.001 11.029 19.124 28.867.215 39.896l-3.469 2.034c-18.878 11.029-49.605 11.029-68.636 0-19.001-11.03-19.124-28.868-.215-39.897l3.468-2.033c18.879-11.03 49.605-11.03 68.637 0z" fill="#D6F0FF"/><path d="M457.679 418.07c-32.353-18.732-91.167-3.636-81.743 26.156.123.462 13.475 47.414 13.567 47.753 2.364 9.951 3.715 14.141 11.389 18.608 18.816 10.906 50.71 4.467 54.178-10.598.154-.462 16.054-56.256 16.146-56.749 2.794-8.842-1.749-18.331-13.537-25.17z" fill="#7CB4F7"/><path d="M457.679 418.069c19.063 11.03 19.155 28.93.215 39.99-18.939 11.029-49.697 11.029-68.759 0-19.032-11.03-19.154-28.929-.215-39.959 18.909-11.06 49.697-11.06 68.759-.031z" fill="#E0EBFF"/><path d="M454.426 453.777c-26.245 14.079-71.552 5.145-74.653-14.696-3.346-21.658 45.707-33.766 74.438-18.424 17.159 9.151 17.251 24 .215 33.12z" fill="#0D2458"/><path d="M467.011 439.266c-.829 5.299-5.004 10.474-12.555 14.51-26.245 14.08-71.552 5.145-74.653-14.695 3.07-19.625 47.978-28.652 74.438-14.542 7.674 4.129 11.941 9.366 12.77 14.727z" fill="#4B6CCC"/><path d="M408.965 442.192c.337 2.095 1.995 4.129 4.972 5.731 10.376 5.576 28.302 2.033 29.499-5.792-.337-2.095-1.995-4.129-4.972-5.731-10.437-5.638-28.302-1.971-29.499 5.792z" fill="#0D2458"/><path d="M424.957 437.725c-1.136-29.668-16.791-56.533-42.453-71.845 39.046-3.913 64.677 39.312 42.453 71.845z" fill="#2ED47A"/><path d="M427.29 442.87c-21.886-31.178-57.432-49.108-95.71-47.568 39.291-31.64 96.999-3.05 95.71 47.568z" fill="#2ED47A"/><path d="M425.848 444.257c-15.164-17.931-38.002-26.989-61.453-23.938 22.408-21.628 59.458-7.24 61.453 23.938z" fill="#2ED47A"/><path d="M503.877 468.996c-18.356-25.078-50.127-31.61-81.099-24.647 37.91-33.704 86.563-18.516 81.099 24.647z" fill="#2ED47A"/><path d="M426.462 443.271c-28.057-2.742-49.513 19.255-61.393 45.196-.675-50.803 36.375-77.699 61.393-45.196z" fill="#2ED47A"/><path d="M424.466 444.75c25.447-28.313 62.865-41.869 100.714-35.738-35.27-36.108-95.956-14.665-100.714 35.738z" fill="#2ED47A"/><path d="M412.127 441.207c.245 1.54 1.442 3.05 3.653 4.22 7.612 4.098 20.75 1.51 21.64-4.251-.245-1.541-1.442-3.05-3.653-4.221-7.643-4.128-20.75-1.448-21.64 4.252z" fill="#58D9EF"/><path d="M429.9 435.692c2.21-3.266 4.574-6.377 7.213-9.243a74.43 74.43 0 018.381-8.102c3.008-2.465 6.108-4.776 9.454-6.747 1.627-1.048 3.376-1.91 5.065-2.835l2.64-1.232 1.32-.616 1.35-.524c3.561-1.54 7.275-2.649 11.02-3.574 3.745-.955 7.613-1.478 11.45-1.817 3.867-.339 7.766-.339 11.634-.062 3.898.216 7.766.801 11.603 1.602-3.745-1.201-7.613-1.972-11.511-2.495a75.456 75.456 0 00-11.818-.463c-7.92.309-15.747 2.095-23.084 5.084l-1.381.554-1.351.647-2.67 1.294c-1.719.986-3.5 1.849-5.157 2.958a65.176 65.176 0 00-9.455 7.147 71.628 71.628 0 00-8.134 8.596c-2.487 3.112-4.727 6.347-6.569 9.828zm-2.61-15.897c.214-2.527.245-5.084.122-7.672-.153-2.557-.46-5.114-1.013-7.64-1.043-5.053-3.039-9.951-5.955-14.264-2.947-4.283-6.63-7.918-10.498-11.245a88.2 88.2 0 00-6.016-4.714 117.153 117.153 0 00-3.162-2.157l-1.596-1.016-.829-.493-.43-.247-.214-.123-.123-.062c-.092-.03.03.062.03.062-.092-.092 0-.031.062.031l.184.154.368.277.737.586 1.473 1.201c.983.801 1.934 1.633 2.886 2.465a218.455 218.455 0 015.617 5.083c3.622 3.481 7.152 7.117 9.946 11.214 2.793 4.098 4.758 8.719 6.078 13.556 1.35 4.899 2.026 9.92 2.333 15.004zm-2.763 14.757c-2.946-7.856-7.428-15.127-12.892-21.566-5.402-6.501-12.125-11.892-19.615-15.866-7.582-3.851-15.655-6.347-23.973-7.764-4.144-.678-8.38-1.048-12.586-.863-4.174.278-8.441.832-12.217 2.742 3.899-1.509 8.104-1.848 12.248-1.848s8.257.524 12.309 1.355c4.052.801 8.042 1.972 11.971 3.235 1.934.74 3.93 1.325 5.833 2.157l2.824 1.232 1.412.616 1.35.74 2.702 1.479c.921.462 1.749 1.109 2.609 1.632.859.586 1.75 1.109 2.578 1.726l2.456 1.879c.399.308.829.616 1.228.955l1.166 1.017 2.333 2.033 2.18 2.187 1.105 1.079 1.043 1.14c2.824 3.019 5.341 6.346 7.674 9.797 2.364 3.512 4.482 7.116 6.262 10.906zm-11.235 3.235c-3.468-.616-7.09-.555-10.62.031-3.53.585-6.968 1.756-10.161 3.419-3.161 1.695-6.108 3.851-8.564 6.439-2.486 2.588-4.543 5.546-6.016 8.781 2.118-2.835 4.42-5.453 6.998-7.733a43.093 43.093 0 018.442-5.854c6.078-3.235 12.892-4.837 19.921-5.083zm23.944-.863c2.578-.924 5.218-1.571 7.889-2.095a88.602 88.602 0 018.042-1.201c5.372-.524 10.805-.524 16.085.338 5.28.832 10.406 2.65 14.918 5.484 4.543 2.835 8.534 6.593 11.849 10.968-2.671-4.775-6.416-9.058-11.02-12.231a36.932 36.932 0 00-7.398-3.912 40.445 40.445 0 00-8.073-2.126c-5.494-.894-11.112-.77-16.545.061-5.433.894-10.836 2.28-15.747 4.714zM194.183 93.35c9.455 5.483 9.516 14.356.123 19.809l-36.129 21.073c-9.393 5.484-24.649 5.484-34.104 0l-10.344-5.977c-9.455-5.484-9.485-14.357-.092-19.81l36.129-21.073c9.393-5.484 24.649-5.484 34.073 0l10.344 5.977z" fill="#D6F0FF"/><path d="M143.535 137.375l-35.361-20.642v-5.884l35.361 20.641v5.885z" fill="#315EA2"/><path d="M189.671 104.748v5.885c-23.912 13.864-13.537 7.825-46.136 26.741 0-4.806-.031-1.632-.031-5.884.215-.123 45.952-26.618 46.167-26.742z" fill="#315EA2"/><path d="M108.174 110.849l35.361 20.641 46.137-26.742-35.393-20.61-46.105 26.711z" fill="#777878"/><path d="M189.672 104.749v3.45s-16.76 9.951-45.83 27.265c-.46-.277-35.208-19.871-35.668-20.148v-4.467c2.578 1.478-2.211-1.294 35.361 20.641.185-.123 45.922-26.618 46.137-26.741z" fill="#315EA2"/><path d="M172.821 70.089l-48.5 28.282-18.97-10.998c24.556-14.326 28.393-16.545 48.499-28.283l18.971 10.999z" fill="#7CB4F7"/><path d="M147.003 85.154l-22.684 13.217-19.001-10.998 8.38-4.868 33.305 2.65z" fill="#ABCFFA"/><path d="M192.127 96.985c-24.127 14.079-11.971 6.993-48.5 28.282-20.474-28.56-14.642-20.426-19.308-26.896.461-.277 11.235-6.531 22.685-13.217 10.498-6.13 21.579-12.57 25.815-15.065 4.819 6.716 1.013 1.417 19.308 26.896z" fill="#4B6CCC"/><path d="M192.127 96.985c-3.96 2.31-5.863 3.419-14.397 8.41l-30.757-20.24c10.498-6.132 21.579-12.57 25.815-15.066 4.85 6.716 1.044 1.417 19.339 26.896z" fill="#315EA2"/><path d="M192.127 96.985l-.031 7.948c-10.099 5.885 8.687-5.083-48.499 28.283 0-2.249 0-.678.03-7.949 41.287-24.061 42.791-24.955 48.5-28.282z" fill="#1B305A"/><path d="M105.318 87.373l-.061 23.63 38.339 22.212.031-7.948-19.308-26.896-19.001-10.998z" fill="#7CB4F7"/><path d="M185.957 96.091v1.849c-.399.216-8.84 4.991-9.209 5.207-1.565-.894-4.021-2.373-5.586-3.266-4.789-7.302-9.608-14.634-14.397-21.966-4.604-2.65-9.178-5.33-13.782-7.98a1222.6 1222.6 0 011.381-3.666l6.907-3.944s4.113 8.041 7.95 10.229c4.666 4.097 17.098 15.065 26.736 23.537z" fill="#1B305A"/><path d="M185.958 89.745l-8.964 5.237c-5.464-7.61-16.545-23.013-16.668-23.168l8.994-5.237c6.324 8.842 8.626 12.015 16.638 23.168z" fill="#4B6CCC"/><path d="M176.994 101.853l8.963-5.238v-6.87l-8.963 5.237v6.871z" fill="#1B305A"/><path d="M160.357 71.784c-3.806-2.157-7.643-4.344-11.45-6.47-1.136.062-2.271.123-3.407.216-.46 1.201-.921 2.433-1.381 3.666 4.604 2.65 9.208 5.33 13.782 7.98 4.789 7.3 9.577 14.633 14.397 21.935 1.565.893 3.131 1.817 4.696 2.711l.031-6.87-16.668-23.168z" fill="#7CB4F7"/><path d="M113.422 88.358a1.27 1.27 0 001.32 0l27.719-16.082c.859-.492.89-1.786 0-2.28a1.271 1.271 0 00-1.32 0L113.422 86.08c-.89.523-.89 1.787 0 2.28z" fill="#315EA2"/><path d="M140.988 72.4l-25.724 14.91c-.03-11.584-2.118-23.445-8.38-33.119 3.008-1.787 17.282-10.29 25.202-15.035 6.876 8.966 8.994 21.844 8.902 33.243z" fill="#E0EBFF"/><path d="M106.884 54.192c6.232 9.581 8.35 21.628 8.38 33.15l25.754-14.911c.031-8.627-25.754-23.26-34.134-18.239z" fill="#fff"/><path d="M116.431 86.633l-1.167.678c-.03-11.523-2.118-23.538-8.38-33.15.369-.216.768-.4 1.197-.555 6.232 9.582 8.319 21.566 8.35 33.027z" fill="#E0EBFF"/><path d="M140.557 98.464l14.612-8.504c1.534-.893 1.995-2.926.982-4.405-.921-1.325-2.671-1.725-4.052-.924l-14.611 8.503c-1.535.893-1.996 2.927-.983 4.405a3.048 3.048 0 004.052.925z" fill="#315EA2"/><path d="M159.437 95.537l.368-.216c1.075-.647 1.412-2.064.706-3.111a2.183 2.183 0 00-2.916-.678l-.368.215c-1.074.647-1.412 2.064-.706 3.112a2.183 2.183 0 002.916.678zm-5.434 3.111l.368-.215c1.075-.647 1.412-2.065.706-3.112a2.183 2.183 0 00-2.916-.678l-.368.216a2.194 2.194 0 00-.676 3.112 2.184 2.184 0 002.886.677zm-4.88 3.081l.368-.215c1.074-.647 1.412-2.064.706-3.112a2.183 2.183 0 00-2.916-.678l-.368.216c-1.075.647-1.412 2.064-.706 3.111.644.956 1.933 1.264 2.916.678zm14.303-1.355l.368-.216c1.075-.647 1.412-2.064.706-3.112a2.183 2.183 0 00-2.916-.678l-.368.216c-1.075.647-1.412 2.064-.706 3.112.644.955 1.934 1.232 2.916.678zm-5.402 3.08l.368-.215c2.486-1.448.338-5.269-2.21-3.79l-.368.216c-1.075.647-1.412 2.064-.706 3.112.644.955 1.933 1.263 2.916.677zm-5.403 3.112l.369-.216c1.074-.647 1.412-2.064.706-3.111a2.184 2.184 0 00-2.916-.678l-.369.216c-1.074.647-1.412 2.064-.706 3.111.645.955 1.903 1.233 2.916.678zm14.336-1.263l.368-.216c1.074-.647 1.412-2.064.706-3.111a2.184 2.184 0 00-2.916-.678l-.368.216c-1.075.647-1.413 2.064-.707 3.111.676.955 1.934 1.263 2.917.678zm-5.403 3.081l.369-.216c1.074-.647 1.412-2.064.706-3.111a2.182 2.182 0 00-2.916-.678l-.369.215c-1.074.647-1.412 2.065-.706 3.112a2.16 2.16 0 002.916.678zm-5.402 3.111l.369-.215c1.074-.647 1.412-2.064.706-3.112a2.185 2.185 0 00-2.917-.678l-.368.216c-1.074.647-1.412 2.064-.706 3.112a2.183 2.183 0 002.916.677z" fill="#fff"/><path d="M144.365 118.489l7.03-4.159c.429-.247.583-.863.276-1.263l-1.504-2.126c-.277-.37-.768-.493-1.167-.246l-7.029 4.159c-.43.246-.583.862-.276 1.263l1.504 2.126c.276.369.798.492 1.166.246z" fill="#8CC63F"/><path d="M140.834 113.806l7.03-4.159c.429-.246.583-.863.276-1.263l-1.504-2.126c-.276-.37-.768-.493-1.167-.246l-7.029 4.159c-.43.246-.583.862-.276 1.263l1.504 2.126a.904.904 0 001.166.246z" fill="#FE405A"/><path d="M140.712 103.609l1.934-1.14c.429-.247.583-.863.276-1.264-.276-.369-.767-.492-1.167-.246l-1.933 1.14c-.43.246-.584.863-.277 1.263.277.37.768.493 1.167.247zm-5.219 3.019l1.934-1.14c.43-.247.583-.863.276-1.263-.276-.37-.767-.493-1.166-.247l-1.934 1.14c-.43.247-.583.863-.276 1.263a.904.904 0 001.166.247zm6.907-.555l1.934-1.14c.429-.246.583-.862.276-1.263-.276-.369-.767-.493-1.167-.246l-1.933 1.14c-.43.246-.584.862-.277 1.263.277.37.768.493 1.167.246zm-5.219 3.019l1.934-1.139c.43-.247.583-.863.276-1.264-.276-.369-.767-.493-1.166-.246l-1.934 1.14c-.43.246-.583.862-.276 1.263a.903.903 0 001.166.246z" fill="#fff"/><path d="M155.567 88.42c-.184.339-.46.616-.828.832L140.373 97.6a2.234 2.234 0 01-1.075.277c-.736 0-1.473-.339-1.903-.986-.552-.77-.552-1.756-.122-2.526.214-.339.491-.616.859-.832l14.274-8.318a2.28 2.28 0 011.166-.308c.737 0 1.474.339 1.903.986.553.77.553 1.787.092 2.526z" fill="#85BCFF"/><path d="M155.567 88.42c-.184.339-.46.616-.828.832L140.373 97.6a2.234 2.234 0 01-1.075.277c-.736 0-1.473-.339-1.903-.986-.552-.77-.552-1.756-.122-2.526l18.294-5.946z" fill="#A7A9AC"/><path d="M113.515 55.486l.061.092c.184.34.645.462.982.278l16.607-9.305c.399-.215.491-.739.215-1.109a.715.715 0 00-.89-.184 8288.475 8288.475 0 00-16.638 9.242.713.713 0 00-.337.986zm1.903 5.33l.031.061c.184.34.644.463.982.278l16.607-9.304c.399-.216.491-.74.215-1.11a.716.716 0 00-.891-.184 7579.963 7579.963 0 00-16.637 9.242c-.399.216-.522.678-.307 1.017zm1.687 6.284l.031.062c.184.34.644.462.982.278l16.607-9.304c.399-.216.491-.74.215-1.11a.716.716 0 00-.891-.184 7579.963 7579.963 0 00-16.637 9.242.763.763 0 00-.307 1.017zm1.198 5.33l.03.062c.184.339.645.462.983.277l16.606-9.304c.399-.215.491-.74.215-1.109a.715.715 0 00-.89-.185 7973.7 7973.7 0 00-16.637 9.243c-.399.215-.522.647-.307 1.016z" fill="#7CB4F7"/><path d="M157.471 60.107l-3.008.185-8.963 5.237 3.008-.184c.123 0 .276 0 .399-.031l8.964-5.238c-.123 0-.277 0-.4.031z" fill="#4B6CCC"/><path d="M160.356 71.784l8.964-5.238c-3.807-2.156-7.644-4.344-11.45-6.47l-8.963 5.238c3.806 2.126 7.612 4.313 11.449 6.47z" fill="#7CB4F7"/><path d="M160.356 71.784l8.964-5.238c-3.807-2.156-7.644-4.344-11.45-6.47l-8.963 5.238c3.806 2.126 7.612 4.313 11.449 6.47z" fill="#ABCFFA"/><path d="M189.334 180.414a.875.875 0 01-.768-.432c-.276-.431-.123-.985.307-1.263l31.28-19.378c11.879-7.363 26.183-8.811 39.291-4.036 1.135.431.521 2.157-.614 1.725-12.586-4.59-26.307-3.173-37.695 3.882l-31.279 19.379a1.09 1.09 0 01-.522.123zm107.344 77.452a.967.967 0 01-.829-.493c-.215-.462-.062-1.017.399-1.232 13.291-6.778 22.255-19.718 23.974-34.567 1.719-14.85-4.052-29.484-15.41-39.127l-8.84-6.007c-1.013-.678.03-2.219 1.043-1.541.062.031 8.902 6.039 8.964 6.1 11.879 10.044 17.895 25.294 16.115 40.79-1.78 15.497-11.112 28.93-24.956 36.015-.184.031-.307.062-.46.062z" fill="#4B6CCC"/><path d="M269.85 226.934c5.28 3.051 5.31 8.011.061 11.091l-29.222 17.376c-5.249 3.05-13.783 3.05-19.063 0l-86.44-50.125c-5.279-3.05-5.31-8.01-.061-11.091l29.223-17.376c5.249-3.05 13.782-3.05 19.062 0l86.44 50.125z" fill="#D6F0FF"/><path d="M265.245 237.409c-13.23 7.733-19.83 12.354-25.478 14.234-2.946.986-5.648 1.232-8.932.77-5.034-.709-.737 1.14-88.804-49.879-4.543-2.619-3.837-5.206-3.776-10.013 0 4.16 1.351 3.759 86.471 53.083 3.101 1.787 7.337 2.434 11.143 2.095.583-.061 1.105-.092 1.596-.185 4.083-.585 6.262-2.341 27.842-14.942 2.455-1.417 3.683-3.265 3.744-5.145-.061 4.899.645 7.394-3.806 9.982z" fill="#4B6CCC"/><path d="M265.184 221.974c5.065 2.927 5.096 7.672.062 10.598l-22.316 13.002c-5.035 2.926-13.2 2.926-18.234 0l-82.665-47.877c-5.034-2.926-5.064-7.671-.061-10.598l22.316-13.001c5.004-2.927 13.169-2.927 18.234 0l82.664 47.876z" fill="#fff"/><path d="M262.206 224.686v1.478l-2.026 1.202v-1.479l2.026-1.201z" fill="#F7941D"/><path d="M260.18 225.887v1.479l-2.854-1.664v-1.478l2.854 1.663z" fill="#FBB040"/><path d="M262.206 224.686l-2.026 1.201-2.854-1.664 2.026-1.17 2.854 1.633z" fill="#FFDDA6"/><path d="M258.186 227.243v1.478l-2.057 1.171.031-1.448 2.026-1.201z" fill="#F7941D"/><path d="M256.16 228.444l-.031 1.448-2.854-1.633v-1.479l2.885 1.664z" fill="#FBB040"/><path d="M258.186 227.243l-2.026 1.201-2.885-1.664 2.026-1.201 2.885 1.664z" fill="#FFDDA6"/><path d="M182.121 178.381v1.448l-3.899 2.279v-1.448l3.899-2.279z" fill="#1B305A"/><path d="M178.223 180.66v1.448l-5.526-3.173v-1.479l5.526 3.204z" fill="#1654BB"/><path d="M182.121 178.381l-3.898 2.279-5.526-3.204 3.899-2.279 5.525 3.204z" fill="#4B6CCC"/><path d="M190.194 183.033v1.448l-3.899 2.28v-1.448l3.899-2.28z" fill="#1B305A"/><path d="M186.296 185.312v1.448l-5.526-3.173v-1.479l5.526 3.204z" fill="#1654BB"/><path d="M190.194 183.033l-3.898 2.28-5.526-3.205 3.929-2.279 5.495 3.204z" fill="#4B6CCC"/><path d="M198.298 187.685l-.031 1.479-3.899 2.279v-1.478l3.93-2.28z" fill="#1B305A"/><path d="M194.369 189.965v1.478l-5.526-3.204.031-1.479 5.495 3.205z" fill="#1654BB"/><path d="M198.297 187.685l-3.929 2.279-5.494-3.204 3.898-2.279 5.525 3.204z" fill="#4B6CCC"/><path d="M206.064 192.121l-.03 1.479-3.93 2.311v-1.479l3.96-2.311z" fill="#1B305A"/><path d="M202.105 194.432v1.478l-5.526-3.234v-1.479l5.526 3.235z" fill="#1654BB"/><path d="M206.064 192.121l-3.959 2.311-5.526-3.235 3.929-2.28 5.556 3.204z" fill="#4B6CCC"/><path d="M214.198 196.835l-.031 1.479-3.929 2.279.031-1.478 3.929-2.28z" fill="#1B305A"/><path d="M210.269 199.115l-.031 1.478-5.525-3.204v-1.478l5.556 3.204z" fill="#1654BB"/><path d="M214.198 196.835l-3.929 2.28-5.556-3.205 3.929-2.31 5.556 3.235z" fill="#4B6CCC"/><path d="M222.333 201.518v1.479l-3.96 2.279.031-1.478 3.929-2.28z" fill="#1B305A"/><path d="M218.404 203.798l-.031 1.478-5.525-3.204v-1.478l5.556 3.204z" fill="#1654BB"/><path d="M222.333 201.518l-3.929 2.28-5.556-3.205 3.929-2.31 5.556 3.235z" fill="#4B6CCC"/><path d="M175.245 182.571v1.478l-3.929 2.28v-1.479l3.929-2.279z" fill="#1B305A"/><path d="M171.316 184.85v1.479l-5.495-3.204v-1.479l5.495 3.204z" fill="#1654BB"/><path d="M175.245 182.571l-3.929 2.279-5.495-3.204 3.899-2.28 5.525 3.205z" fill="#4B6CCC"/><path d="M183.318 187.223v1.478l-3.899 2.28v-1.479l3.899-2.279z" fill="#1B305A"/><path d="M179.419 189.502v1.479l-5.525-3.204v-1.448l5.525 3.173z" fill="#1654BB"/><path d="M183.318 187.223l-3.899 2.279-5.525-3.173 3.898-2.28 5.526 3.174z" fill="#4B6CCC"/><path d="M191.392 191.875v1.479l-3.899 2.279v-1.478l3.899-2.28z" fill="#1B305A"/><path d="M187.494 194.154v1.479l-5.526-3.204v-1.448l5.526 3.173z" fill="#1654BB"/><path d="M191.392 191.875l-3.898 2.279-5.526-3.173 3.929-2.28 5.495 3.174z" fill="#4B6CCC"/><path d="M199.157 196.342v1.479l-3.929 2.279v-1.478l3.929-2.28z" fill="#1B305A"/><path d="M195.229 198.622v1.478l-5.556-3.204v-1.479l5.556 3.205z" fill="#1654BB"/><path d="M199.158 196.342l-3.929 2.28-5.556-3.204 3.929-2.28 5.556 3.204z" fill="#4B6CCC"/><path d="M207.291 201.025v1.479l-3.929 2.31v-1.479l3.929-2.31z" fill="#1B305A"/><path d="M203.362 203.335v1.479l-5.556-3.235v-1.478l5.556 3.234z" fill="#1654BB"/><path d="M207.291 201.025l-3.929 2.31-5.556-3.235 3.929-2.279 5.556 3.204z" fill="#4B6CCC"/><path d="M167.909 186.791v1.448l-3.929 2.28v-1.448l3.929-2.28z" fill="#1B305A"/><path d="M163.98 189.071v1.448l-5.495-3.173v-1.479l5.495 3.204z" fill="#1654BB"/><path d="M167.909 186.791l-3.929 2.28-5.495-3.204 3.899-2.28 5.525 3.204z" fill="#4B6CCC"/><path d="M175.982 191.443v1.479l-3.899 2.249v-1.448l3.899-2.28z" fill="#1B305A"/><path d="M172.084 193.723v1.448l-5.526-3.173v-1.479l5.526 3.204z" fill="#1654BB"/><path d="M175.982 191.443l-3.898 2.28-5.526-3.204 3.899-2.28 5.525 3.204z" fill="#4B6CCC"/><path d="M184.055 196.095v1.479l-3.899 2.28v-1.479l3.899-2.28z" fill="#1B305A"/><path d="M180.156 198.375v1.479l-5.525-3.204v-1.479l5.525 3.204z" fill="#1654BB"/><path d="M184.055 196.095l-3.899 2.28-5.525-3.204 3.929-2.28 5.495 3.204z" fill="#4B6CCC"/><path d="M191.82 200.532v1.479l-3.929 2.31v-1.478l3.929-2.311z" fill="#1B305A"/><path d="M187.891 202.842v1.479l-5.556-3.204v-1.479l5.556 3.204z" fill="#1654BB"/><path d="M191.821 200.532l-3.93 2.311-5.556-3.204 3.96-2.311 5.526 3.204z" fill="#4B6CCC"/><path d="M199.955 205.245v1.479l-3.929 2.28v-1.479l3.929-2.28z" fill="#1B305A"/><path d="M196.026 207.525v1.479l-5.556-3.204v-1.479l5.556 3.204z" fill="#1654BB"/><path d="M199.956 205.245l-3.93 2.28-5.556-3.204 3.96-2.311 5.526 3.235z" fill="#4B6CCC"/><path d="M161.002 190.242v1.448l-3.898 2.28v-1.448l3.898-2.28z" fill="#1B305A"/><path d="M157.104 192.522v1.448l-5.525-3.174v-1.478l5.525 3.204z" fill="#1654BB"/><path d="M161.002 190.242l-3.898 2.28-5.525-3.204 3.929-2.28 5.494 3.204z" fill="#4B6CCC"/><path d="M169.106 194.894v1.479l-3.929 2.28v-1.479l3.929-2.28z" fill="#1B305A"/><path d="M165.176 197.174v1.479l-5.494-3.204v-1.479l5.494 3.204z" fill="#1654BB"/><path d="M169.106 194.894l-3.93 2.28-5.494-3.204 3.898-2.28 5.526 3.204z" fill="#4B6CCC"/><path d="M177.178 199.546v1.479l-3.898 2.28v-1.479l3.898-2.28z" fill="#1B305A"/><path d="M173.28 201.826v1.478l-5.525-3.204v-1.478l5.525 3.204z" fill="#1654BB"/><path d="M177.179 199.546l-3.899 2.28-5.525-3.204 3.898-2.28 5.526 3.204z" fill="#4B6CCC"/><path d="M184.945 204.013v1.479l-3.929 2.28v-1.479l3.929-2.28z" fill="#1B305A"/><path d="M181.017 206.293v1.479l-5.556-3.204v-1.479l5.556 3.204z" fill="#1654BB"/><path d="M184.946 204.013l-3.929 2.28-5.556-3.204 3.929-2.311 5.556 3.235z" fill="#4B6CCC"/><path d="M193.079 208.696v1.479l-3.929 2.28v-1.479l3.929-2.28z" fill="#1B305A"/><path d="M189.15 210.976v1.479l-5.556-3.204v-1.479l5.556 3.204z" fill="#1654BB"/><path d="M193.079 208.696l-3.929 2.28-5.556-3.204 3.929-2.311 5.556 3.235z" fill="#4B6CCC"/><path d="M201.828 213.687l-.03 1.479-3.929 2.28.03-1.479 3.929-2.28z" fill="#1B305A"/><path d="M197.9 215.967l-.031 1.478-5.525-3.204v-1.478l5.556 3.204z" fill="#1654BB"/><path d="M201.829 213.687l-3.929 2.28-5.556-3.204 3.929-2.311 5.556 3.235z" fill="#4B6CCC"/><path d="M202.411 221.944v1.479l-3.93 2.279v-1.478l3.93-2.28z" fill="#1B305A"/><path d="M198.482 224.223v1.479l-5.556-3.204v-1.479l5.556 3.204z" fill="#1654BB"/><path d="M202.411 221.944l-3.929 2.279-5.556-3.204 3.929-2.31 5.556 3.235z" fill="#4B6CCC"/><path d="M195.167 217.446v1.478l-3.959 2.28.03-1.479 3.929-2.279z" fill="#1B305A"/><path d="M191.238 219.725l-.03 1.479-5.526-3.204v-1.479l5.556 3.204z" fill="#1654BB"/><path d="M195.167 217.446l-3.929 2.279-5.556-3.204 3.929-2.31 5.556 3.235z" fill="#4B6CCC"/><path d="M232.401 221.728v1.479l-3.929 2.28v-1.479l3.929-2.28z" fill="#1B305A"/><path d="M228.473 224.008v1.478l-5.556-3.204v-1.478l5.556 3.204z" fill="#1654BB"/><path d="M232.402 221.728l-3.929 2.28-5.556-3.204 3.929-2.28 5.556 3.204z" fill="#4B6CCC"/><path d="M240.535 226.411v1.479l-3.929 2.31v-1.479l3.929-2.31z" fill="#1B305A"/><path d="M236.606 228.721v1.479l-5.556-3.235v-1.479l5.556 3.235z" fill="#1654BB"/><path d="M240.535 226.411l-3.929 2.31-5.556-3.235 3.929-2.279 5.556 3.204z" fill="#4B6CCC"/><path d="M248.67 231.094v1.479l-3.929 2.31v-1.479l3.929-2.31z" fill="#1B305A"/><path d="M244.742 233.404v1.479l-5.556-3.235v-1.479l5.556 3.235z" fill="#1654BB"/><path d="M248.671 231.094l-3.929 2.31-5.556-3.235 3.929-2.279 5.556 3.204z" fill="#4B6CCC"/><path d="M225.064 225.949v1.479l-3.929 2.279v-1.478l3.929-2.28z" fill="#1B305A"/><path d="M221.136 228.228v1.479l-5.556-3.204v-1.479l5.556 3.204z" fill="#1654BB"/><path d="M225.065 225.949l-3.929 2.28-5.556-3.205 3.929-2.31 5.556 3.235z" fill="#4B6CCC"/><path d="M233.199 230.632v1.479l-3.929 2.279v-1.478l3.929-2.28z" fill="#1B305A"/><path d="M229.271 232.911v1.479l-5.556-3.204v-1.479l5.556 3.204z" fill="#1654BB"/><path d="M233.2 230.632l-3.929 2.279-5.556-3.204 3.929-2.31 5.556 3.235z" fill="#4B6CCC"/><path d="M241.334 235.315v1.478l-3.929 2.28v-1.479l3.929-2.279z" fill="#1B305A"/><path d="M237.406 237.594v1.479l-5.556-3.204v-1.479l5.556 3.204z" fill="#1654BB"/><path d="M241.335 235.314l-3.929 2.28-5.556-3.204 3.929-2.31 5.556 3.234z" fill="#4B6CCC"/><path d="M218.526 230.293l-.031 1.479-3.929 2.279v-1.478l3.96-2.28z" fill="#1B305A"/><path d="M214.567 232.572v1.479l-5.556-3.204.031-1.479 5.525 3.204z" fill="#1654BB"/><path d="M218.527 230.293l-3.96 2.279-5.525-3.204 3.929-2.31 5.556 3.235z" fill="#4B6CCC"/><path d="M226.661 234.976l-.03 1.478-3.93 2.311v-1.479l3.96-2.31z" fill="#1B305A"/><path d="M222.702 237.286v1.479l-5.556-3.235.031-1.479 5.525 3.235z" fill="#1654BB"/><path d="M226.662 234.976l-3.96 2.31-5.525-3.235 3.929-2.28 5.556 3.205z" fill="#4B6CCC"/><path d="M234.795 239.659l-.031 1.478-3.929 2.311v-1.479l3.96-2.31z" fill="#1B305A"/><path d="M230.836 241.969v1.479l-5.556-3.235.03-1.479 5.526 3.235z" fill="#1654BB"/><path d="M234.795 239.659l-3.96 2.31-5.525-3.235 3.929-2.28 5.556 3.205z" fill="#4B6CCC"/><path d="M154.894 194.154l-.031 1.448-3.898 2.28v-1.448l3.929-2.28z" fill="#1B305A"/><path d="M150.965 196.434v1.448l-5.526-3.173.031-1.479 5.495 3.204z" fill="#1654BB"/><path d="M154.894 194.154l-3.929 2.28-5.495-3.204 3.898-2.28 5.526 3.204z" fill="#4B6CCC"/><path d="M162.966 198.807v1.448l-3.929 2.279.031-1.448 3.898-2.279z" fill="#1B305A"/><path d="M159.068 201.086l-.031 1.448-5.494-3.173v-1.479l5.525 3.204z" fill="#1654BB"/><path d="M162.966 198.807l-3.898 2.279-5.525-3.204 3.898-2.279 5.525 3.204z" fill="#4B6CCC"/><path d="M230.468 206.201v1.478l-3.96 2.28.031-1.479 3.929-2.279z" fill="#1B305A"/><path d="M226.539 208.48l-.031 1.479-5.525-3.204v-1.479l5.556 3.204z" fill="#1654BB"/><path d="M230.468 206.201l-3.929 2.279-5.556-3.204 3.929-2.31 5.556 3.235z" fill="#4B6CCC"/><path d="M238.602 210.884v1.478l-3.96 2.28.031-1.479 3.929-2.279z" fill="#1B305A"/><path d="M234.673 213.163l-.031 1.479-5.525-3.204v-1.479l5.556 3.204z" fill="#1654BB"/><path d="M238.602 210.883l-3.929 2.28-5.556-3.204 3.929-2.28 5.556 3.204z" fill="#4B6CCC"/><path d="M246.737 215.566v1.479l-3.96 2.311.031-1.479 3.929-2.311z" fill="#1B305A"/><path d="M242.808 217.877l-.031 1.479-5.525-3.235v-1.479l5.556 3.235z" fill="#1654BB"/><path d="M246.737 215.566l-3.929 2.311-5.556-3.235 3.929-2.28 5.556 3.204z" fill="#4B6CCC"/><path d="M254.87 220.249v1.479l-3.959 2.311.03-1.479 3.929-2.311z" fill="#1B305A"/><path d="M250.941 222.56l-.03 1.479-5.526-3.235v-1.479l5.556 3.235z" fill="#1654BB"/><path d="M254.871 220.249l-3.93 2.311-5.556-3.235 3.93-2.28 5.556 3.204z" fill="#4B6CCC"/><path d="M187.525 212.948v1.478l-3.93 2.28v-1.479l3.93-2.279zm-3.93 2.279v1.479l-22.47-13.032v-1.478l22.47 13.031z" fill="#1654BB"/><path d="M187.524 212.948l-3.929 2.28-22.47-13.032 3.899-2.28 22.5 13.032z" fill="#4B6CCC"/><path d="M206.924 212.701v1.479l-5.525-3.204v-1.479l5.525 3.204zm1.596 5.484v1.448l-5.525-3.173v-1.479l5.525 3.204zm7.798-4.56v1.479l-7.797 4.529v-1.448l7.797-4.56z" fill="#1654BB"/><path d="M216.317 213.625l-7.796 4.56-5.526-3.204 3.929-2.28-5.525-3.204 3.899-2.249 11.019 6.377z" fill="#4B6CCC"/><path d="M222.119 209.959v1.479l-3.93 2.28v-1.479l3.93-2.28z" fill="#1654BB"/><path d="M218.19 212.239v1.479l-11.02-6.408v-1.479l11.02 6.408z" fill="#1654BB"/><path d="M222.119 209.959l-3.929 2.28-11.02-6.408 3.898-2.28 11.051 6.408z" fill="#4B6CCC"/><path d="M265.246 237.409c-13.23 7.733-19.83 12.354-25.478 14.234l-2.333-4.129c4.083-.585 6.262-2.341 27.842-14.942 2.455-1.417 3.683-3.265 3.745-5.145-.031 4.899.675 7.394-3.776 9.982z" fill="#1652B7"/><path d="M305.795 257.712c4.543 2.619 4.574 6.901.061 9.551l-17.404 10.136c-4.513 2.618-11.88 2.618-16.423 0l-4.973-2.896c-4.543-2.619-4.573-6.901-.061-9.551l17.405-10.136c4.512-2.619 11.848-2.619 16.391 0l5.004 2.896z" fill="#D6F0FF"/><path d="M285.782 256.788h-.031c-5.341-3.112-4.113-2.403-6.047-3.512-.031 0-.338.061-.491.092-.277 0-1.781.401-2.026.493h-.062c-.092.031-2.087.709-2.179.739 0 0-.829.339-2.916 1.418-.031.03-1.382.893-1.382.893a12.676 12.676 0 00-1.933 1.571l-.185.093c-.736.739-.061.03-.828.801 0 0-.553.585-.584.647-.245.246-.276.339-.614.677-.03.093-.092.124-.153.216-.031 0-.767 1.017-.798 1.048 0 .061-.123.123-.123.184-.061.124-.399.555-.552.863-.031 0-.031 0-.031.031l-.031.031c-.061.154-.338.554-.491.893-.031 0-.031 0-.031.031l-.03.031c0 .031 0 .031-.031.061-.061.154-.307.647-.368.801v.031l-.031.031c0 .031-.368.863-.368.893 0 .062-.215.524-.215.586 0 .031-.185.524-.185.554 0 .093-.092.37-.122.462 0 .031-.031.093-.031.124 0 0-.031.215-.123.493 0 .03 0 .061-.03.092v.062a1.514 1.514 0 00-.093.462c-.03.061-.03.123-.03.154 13.936 8.103 10.283 5.977 13.997 8.133v.031l.522-.277v-.062a.43.43 0 00.061-.185c.062-.215.215-.831.215-.862.062-.154.123-.278.154-.462 0 0 .337-.955.337-.986.123-.247.246-.524.338-.77v-.031c.154-.278.276-.586.491-.894v-.031a7.77 7.77 0 01.553-.955c.03 0 .03-.03.03-.03.185-.308.369-.647.614-.955 0-.031.737-.986.768-1.017 0 0 .675-.832.859-1.017.062-.061.092-.123.154-.185.215-.215.491-.462.706-.677.614-.801 3.683-3.02 4.512-3.359 3.315-1.879 7.214-2.495 7.214-2.495-8.012-4.745-8.38-4.96-8.38-4.96z" fill="#fff"/><path d="M279.703 253.276l6.047 3.512c3.653-.493 5.833-.493 7.337-.339.153 0 1.227.123 1.227.123.86.062 2.364.37 2.364.37a.275.275 0 00.154.031c-.277-.154-5.863-3.482-6.17-3.543 0 0-.584-.124-.614-.124-.154-.03-.369-.061-.584-.092-.03 0-1.258-.154-1.319-.154a39.715 39.715 0 00-2.303-.185c-.89 0-1.074-.031-2.118.031-.061 0-.122-.031-.184 0-.737-.062-2.425.092-3.837.37z" fill="#4B6CCC"/><path d="M285.751 256.788l8.38 4.898c2.609-.462 4.881-.493 7.367-.339 0 0 1.105.093 2.118.247.031 0 1.228.092 1.29.092 0 0-6.784-3.943-8.012-4.652-.031 0-.031 0-.061-.031-.031 0-.093 0-.154-.03 0 0-1.504-.309-2.364-.37-.092-.062-2.332-.216-2.425-.216.185-.031-1.565-.246-6.139.401z" fill="#4B6CCC"/><path d="M304.905 261.655c-29.069 15.713-26.429 14.234-28.302 15.312 0 0 1.075-7.918 9.455-12.785 5.464-2.742 10.805-4.005 18.847-2.527z" fill="#4B6CCC"/><path d="M277.709 276.32l24.71-13.34c-12.463-1.294-21.549 4.683-24.71 13.34z" fill="#0D2458"/><path d="M362.736 213.964c-5.986 3.512-15.778 3.512-21.825 0l-45.737-26.495-15.072 8.811c-4.451 2.588-11.634 2.588-16.115 0l-38.186-22.12c-4.482-2.588-4.482-6.778-.062-9.366l15.072-8.811-24.894-14.419c-6.047-3.512-6.078-9.18-.062-12.693 5.986-3.512 15.778-3.481 21.794 0l124.964 72.4c6.078 3.512 6.139 9.212.123 12.693z" fill="#D6F0FF"/><path d="M298.581 168.183l.031-.031c-.062.308-5.894 8.904-15.103 12.755a28.467 28.467 0 01-3.223 1.109c-1.658.431-7.643 1.325-13.107 6.716-1.627 1.602-3.254 3.759-1.382 5.022-2.547-1.479-37.756-21.966-38.063-22.275-2.179-2.125 2.886-6.13 5.28-7.732 9.086-6.008 16.944-2.095 27.719-17.5 3.622-5.083 5.77-10.721 6.661-17.067 3.069-21.597-9.455-44.919-5.403-54.531 0-.462 1.105-1.787 2.118-2.126 1.167-.431-.338-.863 39.046 22.09-.369-.247-.86-.216-1.259-.062-7.95 2.773 3.346 30.87 3.991 49.109.306 8.533-2.272 17.714-7.306 24.523z" fill="#fff"/><path d="M298.58 168.183l.031-.031c-.061.277-4.42 6.747-11.572 10.968l-37.849-21.936c8.043-4.22 16.361-15.096 18.203-28.004 7.828 2.156 26.399 8.78 38.462 14.48.338 8.533-2.24 17.714-7.275 24.523z" fill="#D6F0FF"/><path d="M304.628 164.702c-4.206 8.102-10.897 14.048-17.129 18.3-5.525 3.789-10.651 6.254-13.414 7.733a70.298 70.298 0 01-7.244 3.419c-5.986-1.14 2.947-9.92 12.309-11.892 2.732-.554 5.372-1.663 7.858-3.142 7.398-4.344 13.476-12.139 16.392-20.18 7.674-20.949-5.188-42.669-4.298-58.874.062-.956.215-3.328 1.32-4.498 1.259-1.356 2.702-1.51 3.254-.34 1.566 3.482 15.44 41.346.952 69.474z" fill="#ABCFFA"/><path d="M307.115 159.156c-3.377 8.935-8.964 16.575-19.615 23.877l-.491.154v-4.036c7.397-4.344 13.475-12.139 16.391-20.18l2.18-2.68 1.535 2.865z" fill="#7190B4"/><path d="M371.484 86.263C215.18-4.313 223.253-.247 220.183.123c-1.105.123-1.166.278-6.476 2.804 1.995-.955 4.297-.432 6.231.678l146.666 85c2.885 1.663 5.187 4.714 6.569 7.825 2.548 5.761 2.087.894-5.096 96.923-.245 3.112-1.565 5.269-3.468 6.193 5.003-2.403 7.919-2.927 8.349-8.565l6.661-88.882c.43-5.915-3.254-13.001-8.135-15.836z" fill="#ABCFFA"/><path d="M366.604 88.605c4.911 2.865 8.564 9.951 8.104 15.866l-6.661 88.882c-.43 5.916-4.789 8.38-9.731 5.515l-146.635-85c-4.912-2.865-8.564-9.951-8.104-15.867l6.661-88.882c.43-5.884 4.789-8.38 9.7-5.514l146.666 85z" fill="#4B6CCC"/><path d="M362.797 90.423c4.389 2.557 7.643 8.903 7.275 14.171l-5.955 79.517c-.399 5.268-4.298 7.486-8.687 4.929l-139.821-80.779c-4.389-2.557-7.643-8.904-7.244-14.172l5.955-79.517c.399-5.268 4.297-7.486 8.687-4.929l139.79 80.78z" fill="#fff"/><path d="M358.101 87.711l-7.397 98.618c-5.372-3.112-123.921-71.599-131.932-76.22 7.735-103.362 7.367-96.492 7.121-98.772 8.135 4.714 127.082 73.417 132.208 76.374z" fill="#E0EBFF"/><path d="M276.971 40.852c0 .092-7.398 98.525-7.398 98.617l-3.284-1.91 7.397-98.617 3.285 1.91zm.706 107.644c-.214 2.958-3.99.863-3.775-2.187.215-2.989 3.99-.832 3.775 2.187zm-24.711-88.327c-.062.862-.706 1.232-1.412.8l-4.973-2.895c-1.75-1.017-1.473-4.128.246-3.143 4.635 2.742 6.262 3.235 6.139 5.238zm6.968-1.325c-.061.863-.706 1.232-1.412.801L246.95 52.93c-1.75-1.017-1.474-4.128.245-3.143 11.726 6.84 12.893 6.963 12.739 9.058zm.369-5.176c-.062.863-.706 1.233-1.412.801l-11.573-6.716c-1.75-1.017-1.473-4.128.246-3.142 11.756 6.839 12.892 6.993 12.739 9.057zm-22.807-14.541c2.824 1.633 4.88 5.668 4.635 9.026-.246 3.359-2.732 4.776-5.556 3.143-2.793-1.633-4.881-5.669-4.635-9.058.276-3.327 2.762-4.744 5.556-3.111z" fill="#fff"/><path d="M260.978 46.46c2.333 1.355 4.083 4.743 3.868 7.547l-1.075 14.388c-.214 2.803-2.271 3.974-4.635 2.618L232.554 55.61c-2.333-1.355-4.083-4.744-3.868-7.548l1.074-14.387c.215-2.804 2.272-3.975 4.635-2.62l26.583 15.405zm-24.403 4.836c2.824 1.633 5.279.216 5.556-3.142.245-3.359-1.811-7.425-4.635-9.027-2.794-1.633-5.28-.216-5.556 3.142-.246 3.358 1.841 7.425 4.635 9.027zm21.917 8.349c1.719.986 1.964-2.126.245-3.142l-11.572-6.717c-.706-.431-1.351-.061-1.412.801-.062.863.46 1.91 1.197 2.311l11.542 6.747zm.399-5.145c1.719.986 1.964-2.126.245-3.142l-11.572-6.717c-.706-.431-1.351-.061-1.412.801-.061.863.46 1.91 1.197 2.311l11.542 6.747zm-7.367 6.47c1.688.986 1.995-2.126.245-3.143l-4.972-2.896c-.706-.431-1.351-.061-1.412.801-.062.863.46 1.91 1.197 2.311l4.942 2.927z" fill="#9464FB"/><path d="M295.482 123.326c-.062.893-.737 1.263-1.443.832l-13.905-8.072c-1.781-1.017-1.504-4.221.245-3.204 14.335 8.318 15.256 8.318 15.103 10.444zm-.83 11.153c-.061.893-.706 1.263-1.442.831l-13.906-8.071c-1.78-1.017-1.504-4.19.246-3.204 14.458 8.41 15.256 8.318 15.102 10.444zm-3.315-7.857c-.061.863-.706 1.233-1.412.801l-10.191-5.915c-1.75-1.016-1.473-4.128.246-3.142 10.406 6.069 11.511 6.161 11.357 8.256zm18.081 16.452c-.061.863-.706 1.232-1.443.801l-10.191-5.915c-1.749-1.017-1.473-4.128.246-3.143 10.406 6.039 11.542 6.162 11.388 8.257zm-18.939-5.268c-.062.863-.706 1.232-1.412.801l-10.192-5.915c-1.749-1.017-1.473-4.129.246-3.143 10.406 6.07 11.511 6.162 11.358 8.257z" fill="#fff"/><path d="M306.502 123.511c3.806 2.218 6.63 7.702 6.292 12.262l-1.043 13.894c-.338 4.56-3.715 6.501-7.521 4.283l-22.899-13.279c-3.806-2.218-6.631-7.702-6.293-12.292l1.044-13.895c.337-4.56 3.714-6.47 7.52-4.282l22.9 13.309zM293.21 135.31c1.75 1.017 2.026-2.156.246-3.204l-13.906-8.071c-1.749-1.017-2.025 2.156-.245 3.204l13.905 8.071zm-12.831-22.428c-1.749-1.017-1.995 2.157-.245 3.204l13.905 8.072c1.719 1.016 2.026-2.157.246-3.204l-13.906-8.072zm27.995 25.324c1.75 1.017 2.026-2.156.246-3.204l-13.906-8.071c-1.749-1.017-2.026 2.156-.245 3.204l13.905 8.071zm.461-5.483c1.718.985 1.995-2.126.245-3.143l-10.191-5.915c-1.719-.986-1.995 2.126-.246 3.142l10.192 5.916zm-.86 11.152c1.719.986 1.995-2.126.246-3.142l-10.192-5.916c-1.719-.985-1.995 2.126-.245 3.143l10.191 5.915zm-18.909-5.268c1.719.986 1.965-2.126.246-3.143l-10.191-5.915c-1.719-.986-1.996 2.126-.246 3.143l10.191 5.915zm-9.147-20.21c-1.719-.986-1.995 2.125-.246 3.142l10.191 5.915c1.719.986 1.965-2.125.246-3.142l-10.191-5.915z" fill="#FF8900"/><path d="M309.847 137.375c-.061.893-.706 1.263-1.442.831l-13.906-8.071c-1.78-1.017-1.504-4.19.246-3.204 14.366 8.349 15.256 8.318 15.102 10.444zm.399-5.484c-.061.862-.706 1.232-1.442.801l-10.191-5.915c-1.75-1.017-1.474-4.129.245-3.143 10.406 6.039 11.542 6.162 11.388 8.257zm2.824-37.771c-.061.893-.706 1.263-1.443.831l-13.905-8.071c-1.78-1.048-1.504-4.19.246-3.204 14.335 8.349 15.256 8.318 15.102 10.444zm.4-5.484c-.062.862-.706 1.232-1.443.8l-10.191-5.915c-1.75-1.016-1.474-4.128.245-3.142 10.498 6.1 11.542 6.193 11.389 8.257zm-15.563 2.218c-.061.893-.706 1.263-1.443.832l-13.905-8.072c-1.78-1.047-1.504-4.19.246-3.204 14.457 8.41 15.256 8.318 15.102 10.444zm-3.377-7.486c-.062.862-.706 1.232-1.412.831l-10.191-5.915c-1.75-1.017-1.474-4.128.245-3.142 10.406 6.038 11.542 6.13 11.358 8.226z" fill="#fff"/><path d="M310.799 81.519c3.192 1.849 5.556 6.47 5.28 10.29l-.553 7.517c-.276 3.82-3.1 5.453-6.293 3.574l-25.14-14.572c-3.192-1.849-5.556-6.47-5.28-10.29l.553-7.518c.276-3.82 3.1-5.453 6.293-3.573l25.14 14.572zm.798 13.432c1.75 1.017 2.026-2.156.245-3.204l-13.905-8.071c-1.75-1.017-2.026 2.156-.245 3.204l13.905 8.071zm-15.164-3.265c1.75 1.016 2.026-2.157.246-3.204l-13.906-8.072c-1.749-1.017-2.026 2.157-.245 3.204l13.905 8.072zm-12.831-22.059c-1.75-1.017-2.026 2.157-.246 3.204l13.906 8.072c1.749 1.016 2.026-2.157.245-3.204l-13.905-8.072zm-.46 5.484c-1.719-.986-1.965 2.126-.246 3.142l10.191 5.915c1.719.986 1.965-2.125.246-3.142l-10.191-5.915zm28.885 14.326c1.719.986 1.995-2.126.245-3.143l-10.191-5.915c-.737-.431-1.351-.062-1.443.801-.153 2.126.952 2.218 11.389 8.257z" fill="#FF8900"/><path d="M298.705 80.071c-.062.893-.706 1.263-1.443.832l-13.905-8.072c-1.781-1.017-1.504-4.19.245-3.204 14.335 8.318 15.256 8.287 15.103 10.444zm51.384 13.741c-.061.893-.706 1.263-1.443.831l-13.905-8.071c-1.78-1.048-1.504-4.19.245-3.204 14.336 8.318 15.256 8.318 15.103 10.444z" fill="#fff"/><path d="M349.291 88.851c2.088 1.202 3.592 4.19 3.408 6.686-.184 2.464-2.026 3.512-4.083 2.31l-29.192-16.913c-5.034-2.927-4.205-11.83.675-8.996l29.192 16.913zm-.644 5.761c1.75 1.017 2.026-2.156.245-3.204l-13.905-8.071c-1.719-1.017-2.026 2.156-.245 3.204l13.905 8.072zm-18.51-10.752c1.719.986 1.995-2.125.246-3.142l-10.191-5.915c-1.719-.986-1.996 2.126-.246 3.142l10.191 5.915z" fill="#ABCFFA"/><path d="M331.58 83.06c-.061.862-.706 1.232-1.412.831-10.436-6.038-11.541-6.161-11.388-8.256.062-.863.706-1.233 1.412-.832 10.437 6.07 11.542 6.162 11.388 8.256zm.952 39.342c-.062.893-.706 1.263-1.443.831-14.366-8.318-15.287-8.287-15.102-10.413.061-.893.706-1.263 1.442-.832 14.335 8.319 15.256 8.288 15.103 10.414zm-4.144 3.173c-.061.862-.706 1.232-1.412.801-10.467-6.069-11.542-6.162-11.388-8.226.061-.863.706-1.232 1.412-.832 10.436 6.069 11.542 6.162 11.388 8.257z" fill="#fff"/><path d="M345.302 124.866c2.762 1.602 4.788 5.546 4.543 8.842l-.307 3.913c-.246 3.296-2.671 4.683-5.433 3.081l-26.737-15.497c-2.762-1.602-4.788-5.545-4.543-8.842l.307-3.912c.246-3.297 2.671-4.683 5.433-3.081l26.737 15.496zm-14.213-1.633c1.75 1.017 2.026-2.156.246-3.204l-13.905-8.041c-1.75-1.016-2.026 2.157-.246 3.204l13.905 8.041zm14.765 8.565c1.719.986 1.996-2.126.246-3.142l-10.191-5.915c-1.719-.986-1.995 2.125-.246 3.142l10.191 5.915zm-18.878-5.391c1.719.986 1.965-2.126.246-3.143l-10.191-5.915c-1.719-.986-1.996 2.126-.246 3.143l10.191 5.915z" fill="#ABCFFA"/><path d="M347.297 130.997c-.061.863-.706 1.233-1.443.801l-10.191-5.915c-1.749-1.017-1.473-4.128.246-3.142 10.406 6.038 11.542 6.161 11.388 8.256z" fill="#fff"/><path d="M232.309 60.015c.122.462.276 1.355.644 1.633l.829.616c.399.308.491.986.184 1.14-.46.246-.859.338-.829.8.062.77.246 1.88-.46 1.48-.184-.093-.767-.925-.921-1.079-.092-.154-.276-.277-.46-.246-.246 0-.829.061-1.013-.031-.676-.4-.369-1.11-.215-1.849.092-.4-.43-1.232-.645-1.633-.245-.492-.061-.985.338-.831l.829.339c.368.154.583-.4.828-.801.246-.401.737-.031.891.462zm6.354 3.665c.123.463.276 1.356.645 1.634l.828.616c.4.308.492.986.185 1.14-.43.246-.86.339-.829.8.061.771.215 1.88-.461 1.48-.184-.093-.767-.925-.92-1.079-.123-.154-.277-.277-.461-.277-.245 0-.829.062-1.013-.03-.675-.401-.399-1.11-.215-1.85.092-.4-.429-1.232-.644-1.632-.246-.493-.062-.986.337-.832l.829.339c.368.154.583-.431.829-.801.245-.339.767.03.89.493zm6.385 3.698c.123.493.276 1.356.645 1.633l.828.616c.4.308.492.986.185 1.14-.43.246-.86.339-.829.8.061.771.215 1.85-.461 1.48-.184-.093-.767-.925-.92-1.079-.093-.123-.277-.277-.461-.246-.245 0-.829.062-1.013-.03-.675-.401-.399-1.11-.215-1.85.092-.43-.429-1.232-.644-1.632-.246-.493-.062-.986.337-.832l.829.339c.368.154.583-.431.829-.801.245-.37.767 0 .89.462zm6.354 3.697c.123.462.276 1.355.644 1.633l.829.616c.399.308.491.986.184 1.14-.46.246-.859.339-.828.8.061.771.245 1.88-.461 1.48-.184-.093-.767-.925-.921-1.079-.092-.154-.276-.277-.46-.246-.246 0-.829.092-1.013-.03-.676-.401-.399-1.11-.215-1.85.092-.4-.43-1.232-.645-1.632-.276-.493-.061-.986.338-.832l.829.339c.368.154.583-.4.829-.801.245-.37.767 0 .89.462z" fill="#FF8900"/><path d="M257.786 74.772c.123.462.276 1.355.644 1.633l.829.616c.399.308.491.986.184 1.14-.46.246-.859.339-.828.8.061.771.215 1.88-.461 1.48-.184-.093-.798-.925-.921-1.11-.092-.154-.276-.277-.46-.246-.246 0-.829.062-1.013-.03-.675-.401-.399-1.11-.215-1.85.092-.4-.43-1.232-.645-1.632-.245-.493-.061-.986.338-.832l.829.339c.368.154.583-.431.829-.801.245-.37.767.03.89.493z" fill="#fff"/><path d="M244.034 81.796c1.75 1.017 3.07 3.574 2.916 5.7l-.306 4.16c-.154 2.125-1.719 2.987-3.5 1.97l-13.874-8.04c-1.75-1.017-3.07-3.574-2.917-5.669l.307-4.16c.154-2.125 1.719-3.018 3.469-1.97l13.905 8.01z" fill="#2B6DAD"/><path d="M242.469 96.584c1.75 1.017 3.07 3.574 2.916 5.669l-.307 4.159c-.153 2.126-1.719 2.989-3.468 1.972l-13.875-8.041c-1.78-1.017-3.07-3.574-2.916-5.669l.307-4.159c.153-2.126 1.719-2.988 3.499-1.972l13.844 8.041zm16.207-6.1c1.29.74 2.241 2.588 2.119 4.16l-.461 6.223c-.123 1.54-1.258 2.187-2.548 1.448l-6.108-3.543c-1.289-.74-2.241-2.619-2.118-4.129l.46-6.223c.123-1.54 1.259-2.187 2.548-1.448l6.108 3.512z" fill="#ABCFFA"/><path d="M257.295 105.057c1.289.739 2.241 2.588 2.118 4.159l-.46 6.223c-.123 1.541-1.259 2.187-2.548 1.448l-6.109-3.543c-1.289-.739-2.24-2.588-2.118-4.128l.461-6.254c.123-1.541 1.258-2.188 2.548-1.448l6.108 3.543z" fill="#FB3F5C"/><path d="M433.122 232.572c7.367 4.283 7.429 11.184.092 15.466l-28.179 16.452c-7.305 4.282-19.246 4.282-26.583 0l-22.438-13.741c-7.368-4.282-7.398-11.183-.062-15.466l28.179-16.451c7.306-4.283 19.216-4.283 26.583 0l22.408 13.74z" fill="#D6F0FF"/><path d="M434.809 232.141l-.03 9.304-43.742 25.54v-9.335l43.772-25.509z" fill="#1B305A"/><path d="M434.748 233.096l-.031 7.086-43.772 25.509.03-7.086 43.773-25.509z" fill="#7190B4"/><path d="M391.037 257.65v9.335l-31.464-18.238v-9.335l31.464 18.238z" fill="#4B6CCC"/><path d="M390.976 258.605v7.086l-29.928-17.345v-7.086l29.928 17.345z" fill="#E0EBFF"/><path d="M434.809 232.141l-43.772 25.509-31.433-18.207c.43-.278 43.312-25.263 43.742-25.51.123.031 22.009 12.724 31.463 18.208z" fill="#1652B7"/><path d="M390.914 239.504c1.566.894 1.566 2.372.031 3.266-1.535.893-4.052.893-5.617 0l-.062-.031c-1.565-.893-1.565-2.372-.03-3.266 1.534-.893 4.052-.893 5.617 0l.061.031zm19.891-10.814c5.065 2.927 5.925 6.47 1.289 9.181l-.061.031c-4.082 2.403-8.595 1.941-12.892.493-.676-.246-1.566-.216-2.21.062-.829.339-1.934.277-2.64-.124l-1.105-.647c-.737-.431-.798-1.078-.215-1.571l3.806-2.957h.338c4.604 2.464 7.49 2.803 9.362 1.725l.062-.031c1.565-.924 1.289-2.156-.768-3.327-1.32-.77-2.885-1.263-4.758-1.479-.706-.092-1.32-.277-1.78-.555-.675-.4-1.075-.924-1.013-1.509.092-1.232 2.026-2.126 4.082-1.91 2.978.277 5.833 1.078 8.503 2.618z" fill="#4B6CCC"/><path d="M302.479 286.302c-2.272 1.325-2.272 3.42-.031 4.745l23.79 13.863c2.241 1.294 5.893 1.294 8.134 0l36.713-21.257c2.241-1.294 2.271-3.42.03-4.714l-23.789-13.864c-2.241-1.294-5.894-1.294-8.135 0l-36.712 21.227z" fill="#D6F0FF"/><path d="M307.236 287.966c20.843 12.169 20.935 12.601 23.299 12.847.307.031.583.062.89.062 2.855 0 2.609-.308 35.454-19.348.767-.431 1.473-1.202 1.473-2.064 0 .462.062 2.187-.092 2.618-.184.647-.829 1.233-1.381 1.541-32.661 18.916-32.569 19.348-35.454 19.348-.307 0-.583-.031-.89-.062-.092 0-.184-.031-.277-.031-2.056-.277-1.105-.031-23.022-12.816-.951-.555-1.442-1.294-1.442-2.033v-2.095c0 .739.491 1.478 1.442 2.033z" fill="#7190B4"/><path d="M307.267 283.868c-1.964 1.14-1.964 2.989-.03 4.098l20.689 12.046c1.934 1.14 5.095 1.14 7.06 0l31.893-18.485c1.965-1.14 1.965-2.989.031-4.098l-20.689-12.046c-1.934-1.14-5.096-1.14-7.06 0l-31.894 18.485z" fill="#8FD6FF"/><path d="M311.411 284.731c9.393-.339 18.602-.678 27.842-.986.613-5.361 1.197-10.721 1.78-16.082l-.123-.031-29.499 17.099zm33.306-17.376c-.399 3.697-.829 7.301-1.228 10.937 6.477-.123 12.861-.216 19.4-.339l-18.172-10.598z" fill="#fff"/><path d="M343.274 280.387a745.047 745.047 0 01-.368 3.173c-.031.339-.061.678-.123 1.048-.031.4-.215.677-.522.862-.337.185-.798.278-1.473.308-2.179.093-4.359.154-6.538.247-.215 0-.399.031-.614.031-.246 4.097-.461 8.164-.676 12.323l31.587-18.3c-7.183.123-14.213.216-21.273.308zm-32.046 6.47l18.11 10.567c.215-3.79.43-7.487.614-11.214-6.262.215-12.432.431-18.724.647z" fill="#fff"/><path d="M230.098 411.045c50.772 29.422 51.017 77.083.584 106.505l-9.271 5.422c-50.433 29.422-132.423 29.422-183.194 0-50.74-29.391-51.017-77.082-.583-106.504l9.27-5.423c50.434-29.422 132.454-29.422 183.194 0z" fill="#D6F0FF"/><path d="M191.697 429.715c-.061.031-.061.031-.092.062-1.013.832-4.266 1.787-6.2 1.725-7.951.462-19.032-17.376-21.979-19.502-2.179-1.54-7.95-.955-8.288-.924.737-15.835 1.535-28.251 2.333-37.987 12.371-5.792 7.613-3.543 20.904-9.766 5.771-2.649 7.245-10.136 3.868-11.122.184.093.368.216.552.308-.828-.493-1.105-.493-.583-.339a4261.487 4261.487 0 00-20.014-11.707s-.03 0-.03-.031c1.657-5.206 3.622-6.469 4.88-8.687 0 0 0-.031.031-.031 5.617-9.366-11.45-14.265-16.975-25.017-1.719-3.358 2.456-12.754 4.206-16.143 1.412.369 26.705-5.022 35.791-1.387 9.086 3.667 10.345 18.208 10.345 18.208-1.596 7.825-7.736 36.231-11.204 43.994-11.051 24.74-15.809 47.907-14.98 55.301.276 2.342 1.013 4.283 2.486 5.792 2.517 2.496 15.932 14.388 16.269 15.097v.03c.154.863-.675 1.88-1.32 2.126z" fill="#FEB2B2"/><path d="M169.658 344.869c-2.579-1.51-5.096-2.989-7.49-4.375 1.688-5.361 3.499-6.347 4.819-8.688 0 0 0-.031.031-.031.153-.277.429-.739.644-1.201 1.29 5.36 1.873 9.92 1.996 14.295zm22.04 84.846a1.292 1.292 0 01-.215.123c-1.474.832-3.776 1.448-5.802 1.633-.03 0-.092 0-.123.031-11.48-.431-10.344-10.875-30.45-20.395.737-15.836 1.535-28.221 2.333-38.018l10.068-4.713c-1.166 8.688-2.425 19.409-2.793 34.628-.154 6.408 27.657 23.353 28.24 24.585 0 0 .031.124.031.185.245.77-.614 1.664-1.289 1.941z" fill="#ED8585"/><path d="M201.857 429.469c-1.013 4.19-7.397 9.119-14.427 10.043-12.677 1.695-19.338-8.534-22.439-10.844h-.03c-1.136-.863-2.794-.093-2.886 1.17-.46 6.254-.123 7.795-2.149 7.918-2.854.154-4.727.616-5.064-1.078-3.991-20.58-4.114-20.211-.676-24.493.491-.616 1.382-.832 2.118-.554.184.061 24.987 9.55 25.202 9.581 4.144.832 21.211 4.775 20.351 8.257z" fill="#9E2456"/><path d="M200.415 307.437c-.245 1.17-2.425 11.522-2.824 13.093-17.558-15.897-18.387-17.129-33.735-22.49-.184-.647-2.763-3.728-7.705-7.579 3.807-.493 12.494-2.002 20.536-2.403 11.235-.585 16.484.524 20.628 8.503 2.578 5.176 3.1 10.876 3.1 10.876z" fill="#ED8585"/><path d="M201.857 429.469c-1.012 4.19-7.397 9.119-14.427 10.043-12.677 1.695-19.338-8.534-22.439-10.844 5.587 1.879 18.265 5.822 24.742 5.453 6.139-.37 7.858-5.33 8.349-8.041 2.456 1.078 4.082 2.249 3.775 3.389z" fill="#5E2456"/><path d="M187.494 499.219c-.553-.308-8.933-5.238-9.547-5.392-6.968-1.694-15.962 13.279-10.958 18.794.675.77 6.169 3.82 9.423 5.73-7.06-4.128 3.592-23.507 11.082-19.132z" fill="#7CB4F7"/><path d="M183.135 499.188c4.266-1.725 7.213 1.171 6.569 6.47-.645 5.299-4.605 10.998-8.902 12.724-4.267 1.725-7.214-1.171-6.569-6.47.644-5.299 4.604-10.999 8.902-12.724z" fill="#3C66DF"/><path d="M188.936 498.942a3.34 3.34 0 00-.461-.247h-.03l-.461-.185h-.092c-.614-.154-1.166-.154-1.688-.123 0 0-.583.062-1.32.277-.031 0-.062.031-.092.031-3.5 1.109-6.723 4.806-8.38 8.133 0 0-.031.031-.031.062a20.04 20.04 0 00-.829 1.849v.061c-.03.062-.675 1.941-.614 1.941-.153.616-.337 1.541-.368 2.188l-11.112-6.439a14.3 14.3 0 01.399-2.188v-.031c.061-.339.522-1.725.614-1.91v-.031c.829-1.971.798-1.848.798-1.848s.767-1.633 2.21-3.481c0 0 .062-.062.062-.093 1.565-1.941 1.473-1.479 2.793-2.803 0 0 .767-.586 1.443-.986.491-.308 1.596-.801 1.903-.863.031 0 .061-.031.092-.031.215-.061.675-.185.675-.185.031 0 .399-.092.553-.092.061-.031.614-.031.675-.031h.614l.491.093s.215.061.522.184h.031c.521.278 11.142 6.47 11.603 6.748z" fill="#1652B7"/><path d="M191.33 503.193l-2.978 1.725c-1.197-6.038-9.607-1.232-10.743 6.224l-3.008 1.725c.828-11.584 15.47-20.426 16.729-9.674z" fill="#0D2458"/><path d="M65.968 499.435c-.553-.308-8.933-5.238-9.547-5.392-6.968-1.694-15.962 13.279-10.958 18.793.675.771 6.17 3.821 9.424 5.731-7.06-4.129 3.591-23.507 11.08-19.132z" fill="#7CB4F7"/><path d="M61.578 499.404c4.267-1.725 7.214 1.171 6.57 6.47-.645 5.299-4.605 10.998-8.902 12.723-4.267 1.726-7.214-1.17-6.57-6.469.676-5.299 4.636-10.999 8.902-12.724z" fill="#3C66DF"/><path d="M67.41 499.159a3.335 3.335 0 00-.46-.247h-.031a85.025 85.025 0 01-.46-.185h-.093c-.614-.154-1.166-.154-1.688-.123 0 0-.583.062-1.32.277-.03 0-.061.031-.092.031-3.5 1.109-6.722 4.806-8.38 8.134 0 0-.03.03-.03.061a19.958 19.958 0 00-.83 1.849v.061c-.03.062-.675 1.941-.613 1.941-.154.616-.338 1.541-.369 2.188l-11.112-6.439c.123-1.109.307-1.849.4-2.188v-.031c.06-.338.521-1.725.613-1.91v-.03c.83-1.972.798-1.849.798-1.849s.768-1.633 2.21-3.481c0 0 .062-.062.062-.093 1.566-1.972 1.473-1.479 2.793-2.803 0 0 .768-.586 1.443-.986.491-.308 1.596-.801 1.903-.863.03 0 .062-.031.092-.031.215-.061.676-.185.676-.185.03 0 .399-.092.552-.092.062-.031.614-.031.675-.031h.614l.492.093s.214.061.521.185h.031c.522.308 11.112 6.5 11.603 6.747z" fill="#1652B7"/><path d="M69.804 503.409l-2.977 1.725c-1.197-6.038-9.608-1.232-10.744 6.223l-3.008 1.726c.829-11.584 15.44-20.426 16.73-9.674z" fill="#0D2458"/><path d="M187.494 426.111c-.553-.308-8.933-5.238-9.547-5.392-6.968-1.694-15.962 13.279-10.958 18.793.675.77 6.169 3.82 9.423 5.731-7.06-4.129 3.592-23.507 11.082-19.132z" fill="#7CB4F7"/><path d="M183.135 426.08c4.266-1.725 7.213 1.171 6.569 6.47-.645 5.299-4.605 10.998-8.902 12.723-4.267 1.726-7.214-1.17-6.569-6.469.644-5.299 4.604-10.999 8.902-12.724z" fill="#3C66DF"/><path d="M188.936 425.864c-.154-.092-.307-.185-.461-.246h-.03l-.461-.185h-.092c-.614-.154-1.166-.154-1.688-.123 0 0-.583.061-1.32.277-.031 0-.062.031-.092.031-3.5 1.109-6.723 4.806-8.38 8.133 0 0-.031.031-.031.062a20.02 20.02 0 00-.829 1.848v.062c-.03.061-.675 1.941-.614 1.941-.153.616-.337 1.54-.368 2.187l-11.112-6.439c.123-1.109.307-1.848.399-2.187v-.031c.061-.339.522-1.725.614-1.91v-.031c.829-1.972.798-1.848.798-1.848s.767-1.633 2.21-3.482c0 0 .062-.061.062-.092 1.565-1.941 1.473-1.479 2.793-2.804 0 0 .767-.585 1.443-.986.491-.308 1.596-.801 1.903-.862.031 0 .061-.031.092-.031.215-.062.675-.185.675-.185.031 0 .399-.092.553-.092.061-.031.614-.031.675-.031h.614l.491.092s.215.062.522.185h.031c.521.277 11.142 6.47 11.603 6.747z" fill="#1652B7"/><path d="M191.33 430.085l-2.978 1.725c-1.197-6.038-9.607-1.232-10.743 6.224l-3.008 1.725c.828-11.584 15.47-20.426 16.729-9.674z" fill="#0D2458"/><path d="M65.968 426.326c-.553-.308-8.933-5.237-9.547-5.391-6.968-1.694-15.962 13.278-10.958 18.793.675.77 6.17 3.82 9.424 5.73-7.06-4.128 3.591-23.506 11.08-19.132z" fill="#7CB4F7"/><path d="M61.578 426.296c4.267-1.726 7.214 1.17 6.57 6.469-.645 5.3-4.605 10.999-8.902 12.724-4.267 1.726-7.214-1.17-6.57-6.469.676-5.299 4.636-10.999 8.902-12.724z" fill="#3C66DF"/><path d="M67.41 426.081c-.153-.092-.307-.185-.46-.246h-.031l-.46-.185h-.093c-.614-.154-1.166-.154-1.688-.123 0 0-.583.061-1.32.277-.03 0-.061.031-.092.031-3.5 1.109-6.722 4.806-8.38 8.133 0 0-.03.031-.03.062a19.94 19.94 0 00-.83 1.848v.062c-.03.062-.675 1.941-.613 1.941-.154.616-.338 1.54-.369 2.187l-11.112-6.439c.123-1.109.307-1.848.4-2.187v-.031c.06-.339.521-1.725.613-1.91v-.031c.83-1.972.798-1.848.798-1.848s.768-1.633 2.21-3.482c0 0 .062-.061.062-.092 1.566-1.941 1.473-1.479 2.793-2.804 0 0 .768-.585 1.443-.986.491-.308 1.596-.801 1.903-.862.03 0 .062-.031.092-.031.215-.062.676-.185.676-.185.03 0 .399-.092.552-.092.062-.031.614-.031.675-.031h.614l.492.092s.214.062.521.185h.031c.522.277 11.112 6.47 11.603 6.747z" fill="#1652B7"/><path d="M69.804 430.301l-2.977 1.725c-1.197-6.038-9.608-1.232-10.744 6.223l-3.008 1.725c.829-11.553 15.44-20.425 16.73-9.673z" fill="#0D2458"/><path d="M105.842 436.031l4.819 3.142-.03 8.349-4.82-3.142a111.39 111.39 0 00-55.866-17.869l.03-8.349a111.391 111.391 0 0155.867 17.869z" fill="#7CB4F7"/><path d="M56.759 500.79l-6.753-3.943-.03-8.349 6.752 3.943.03 8.349z" fill="#F1F2F2"/><path d="M117.445 451.466l-11.818 6.038a112.14 112.14 0 00-32.445 24.986l-16.423 18.331-.03-8.349 16.422-18.331a111.724 111.724 0 0132.446-24.986l11.818-6.038.03 8.349z" fill="#3C66DF"/><path d="M56.759 500.79l-6.753-3.943-.03-8.349 6.752 3.943.03 8.349z" fill="#7CB4F7"/><path d="M184.824 418.162h.03l.031 8.349a111.38 111.38 0 00-55.836 17.869l-4.819 3.142-.031-8.349 4.85-3.142a111.064 111.064 0 0155.775-17.869z" fill="#3C66DF"/><path d="M178.131 500.79l6.754-3.943.03-8.35-6.753 3.944-.031 8.349z" fill="#F1F2F2"/><path d="M184.915 488.498l-6.753 3.943-16.423-18.331a111.863 111.863 0 00-32.476-24.985l-11.788-6.008h-.03l-11.818 6.038a112.134 112.134 0 00-32.446 24.986l-16.422 18.331-6.754-3.944 16.423-18.331c9.178-10.259 20.198-18.7 32.446-24.954l11.818-6.039-4.82-3.111a111.38 111.38 0 00-55.867-17.869l6.753-3.944a111.39 111.39 0 0155.837 17.869l4.819 3.143 4.85-3.143a111.88 111.88 0 0155.805-17.869h.031l6.753 3.944a111.48 111.48 0 00-55.867 17.869l-4.819 3.111h.031l11.818 6.039a112.134 112.134 0 0132.446 24.985l16.453 18.27z" fill="#1652B7"/><path d="M129.263 449.124l-11.818-6.038-.031 8.349 11.818 6.039a112.022 112.022 0 0132.415 24.954l16.453 18.331.031-8.349-16.423-18.331a111.771 111.771 0 00-32.445-24.955z" fill="#7CB4F7"/><path d="M178.131 500.79l6.754-3.943.03-8.35-6.753 3.944-.031 8.349zm-54.118-91.439l-.153 30.069c0 1.016-.675 2.033-1.995 2.803-2.671 1.541-6.999 1.541-9.7 0-1.351-.77-2.026-1.817-2.026-2.834l.153-30.069c0 1.017.675 2.064 2.026 2.834 4.328 2.496 11.665.709 11.695-2.803z" fill="#0D2458"/><path d="M121.988 406.486c2.701 1.571 2.701 4.097.03 5.638-2.67 1.54-6.998 1.54-9.7 0-2.67-1.541-2.701-4.067-.03-5.638 2.67-1.541 6.998-1.541 9.7 0z" fill="#CCC"/><path d="M207.107 368.191c-85.703-49.971-83.094-48.647-84.077-48.708-3.775-.247-58.63 34.721-69.004 38.387-12.34 4.375-19.523-3.512-20.812-.832-4.298 9.089 81.559 48.801 84.782 49.725 17.006 4.806 20.536-.555 85.52-38.233 1.135-.617 2.486-.955 3.591-.339z" fill="#5E2456"/><path d="M109.095 417.7c-6.907-4.036-11.05-11.122-13.046-18.916-2.394-9.366-1.565-11.646-1.842-108.23l-82.94-48.369c.276 100.743-2.119 107.798 7.55 120.553 4.298 5.669.737 2.742 90.278 54.962z" fill="url(#paint0_linear_6_351)"/><path d="M102.741 281.527c-85.857-50.095-83.094-48.677-84.077-48.708h-.46c-3.377.308-6.968 5.361-6.937 9.366l82.94 48.369c-.03-5.114 5.434-10.845 8.534-9.027z" fill="#F37060"/><path d="M205.756 378.358a9.435 9.435 0 01-2.179 1.756l-26.552 15.404-15.686 9.088-16.606 9.612c-27.627 16.021-50.158 3.143-50.25-28.713l-.276-94.92c0-3.205 2.24-7.086 5.003-8.688 2.763-1.602 5.004-.309 5.034 2.865l.215 73.94.062 20.98c0 5.453.859 10.198 2.363 14.172 5.587 14.665 20.475 18.886 37.849 8.842l17.619-10.197 17.988-10.414 23.237-13.463c.368-.216.706-.37 1.013-.493 4.758-1.848 5.28 5.761 1.166 10.229z" fill="#9E2456"/><path d="M188.475 357.346c-11.449-6.685-20.904-12.2-28.67-16.729-.522-21.134-.829-44.425.277-47.321 2.025-5.269 28.762-6.563 31.033-4.591 2.916 2.496 4.85 6.716 5.526 10.167 4.757 17.869-1.351 38.48-8.166 58.474z" fill="#DE786E"/><path d="M221.35 451.62c-.061.03-.061.061-.092.061-.921.925-4.021 2.126-5.955 2.126-7.735.832-19.86-18.084-22.899-20.272-2.241-1.571-7.858-.708-8.165-.647-.399-17.222-.522-30.716-.43-41.345 11.695-6.778 7.214-4.159 19.738-11.43 5.433-3.111 6.384-11.306 2.977-12.2.184.093.368.216.553.308-.829-.493-1.136-.462-.584-.338-4.788-2.804-15.593-9.089-20.413-11.923 0 0-.03 0-.03-.031 1.258-5.73 3.069-7.178 4.144-9.612 0 0 0-.031.03-.031 4.82-10.413-12.217-15.004-18.387-26.465-1.903-3.573 1.505-13.925 2.947-17.684 1.412.37 25.785-6.531 34.932-2.957 9.148 3.604 11.419 19.348 11.419 19.348-1.013 8.533-4.972 39.65-7.827 48.184-9.055 27.296-12.033 52.62-10.713 60.631.43 2.526 1.289 4.621 2.855 6.192 2.64 2.619 16.606 14.973 17.005 15.743v.031c.246.863-.491 2.003-1.105 2.311z" fill="#FEB2B2"/><path d="M193.755 360.396c-2.64-1.54-5.188-3.019-7.643-4.467 1.258-5.884 2.977-7.024 4.113-9.643 0 0 0-.031.031-.031.153-.308.368-.832.552-1.324 1.627 5.792 2.486 10.721 2.947 15.465zm27.595 91.224a.933.933 0 01-.184.154c-1.381.955-3.591 1.725-5.556 2.002-.031 0-.061 0-.123.031-11.265 0-10.897-11.399-31.248-20.919-.399-17.222-.522-30.716-.43-41.345l9.516-5.514c-.522 9.489-1.013 21.196-.246 37.678.307 6.963 28.732 24.247 29.376 25.571 0 0 .062.124.062.216.245.801-.522 1.818-1.167 2.126z" fill="#ED8585"/><path d="M231.265 450.911c-.706 4.591-6.599 10.198-13.383 11.461-12.279 2.342-19.523-8.472-22.715-10.875h-.031c-1.197-.894-2.732 0-2.732 1.386 0 6.809.46 8.472-1.535 8.688-2.793.308-4.574.863-5.034-.955-5.372-22.151-5.464-21.751-2.394-26.557.429-.678 1.289-.986 2.026-.678.184.062 25.109 9.366 25.324 9.397 4.083.739 21.088 4.344 20.474 8.133z" fill="#9E2456"/><path d="M221.136 318.528c-.184 1.294-1.535 12.6-1.842 14.326-18.325-16.544-19.215-17.838-34.594-23.045-.246-.678-2.947-3.913-8.073-7.887 3.683-.709 12.094-2.65 19.921-3.451 10.959-1.109 16.147-.092 20.812 8.411 2.886 5.484 3.776 11.646 3.776 11.646z" fill="#ED8585"/><path d="M231.265 450.911c-.706 4.591-6.6 10.198-13.384 11.461-12.278 2.341-19.523-8.472-22.715-10.875 5.587 1.817 18.295 5.576 24.588 4.898 5.955-.647 7.305-6.131 7.581-9.057 2.487 1.139 4.144 2.341 3.93 3.573z" fill="#5E2456"/><path d="M193.755 327.709c-.338 19.563-3.837 15.311-16.76 23.968-32.968 19.379-49.36 30.501-66.611 32.103-.153 0-.276.031-.399.031-.46.03-.951.092-1.443.092a40.221 40.221 0 01-3.867 0 47.1 47.1 0 01-.184-4.252s-.185-59.059-.215-78.499c31.187-6.87 5.126 2.341 55.314-9.551-.184.062 20.045 12.416 20.229 12.508 9.454 6.07 14.059 15.528 13.936 23.6z" fill="#2ED47A"/><path d="M184.7 309.809c-14.212-4.806-34.656-9.735-49.267-12.94 10.682-1.94 23.973-5.206 23.973-5.206 11.88 4.898 24.434 15.589 25.294 18.146z" fill="#009745"/><path d="M190.808 343.883c-.553.77-5.157 2.958-13.691 7.733-20.075 10.044-44.509 29.638-66.733 32.164-.153 0-.276.031-.399.031a54.664 54.664 0 01-5.28.277c-.03-.062-.03-.123-.03-.154a47.1 47.1 0 01-.184-4.252c-.123-43.994-.062-25.755-.215-72.492 1.043.678 12.892 7.98 19.983 12.231-1.903 4.221-6.723 11.8-3.96 17.253 1.78 3.512 13.445 7.117 9.731 11.399-4.236 4.929-15.993 9.828-7.828 13.432 5.249 2.311 26.03-6.747 41.378-14.387 8.503-4.252 27.351-16.421 29.008-13.833.829 1.202-.921 9.489-1.78 10.598z" fill="#0CB75A"/><path d="M185.773 197.482c.185.277 1.934 4.005-.276 3.82-2.21-.185-3.008-3.297-3.99-4.529-.952-1.263 4.266.709 4.266.709z" fill="#ED8585"/><path d="M181.445 196.65c.092.308.491 4.436-1.535 3.512-2.026-.924-1.719-4.128-2.241-5.607-.491-1.51 3.776 2.095 3.776 2.095z" fill="#ED8585"/><path d="M153.113 206.17c2.701-.555 2.67.523 3.806 3.912 1.627 4.868 2.057 7.702 11.173 1.695 6.109-4.159 14.427-1.109 17.221-4.313.614-.709 1.228-1.941.767-2.619-1.166-1.756-7.428 1.694-9.117-1.602-.644-1.233 2.18-4.93 5.556-5.238 4.175-.369 5.096 2.958 7.429 3.543 1.412.37 5.218.247 2.67-2.31-3.837-3.944-9.3-7.302-12.861-9.428-4.666-2.341-7.306-4.374-14.427 3.297-3.837 4.313-3.653 5.515-6.846 8.441-1.903 1.787-6.262 5.084-5.371 4.622z" fill="#FEB2B2"/><path d="M156.06 203.612c1.136.278 3.745-.677 4.451.432.859 1.386 3.745 6.069 5.802 8.842 1.995-1.202 2.854-2.157 5.893-2.989-.368-6.469-9.117-5.545-6.876-16.821-4.573 5.145-3.468 5.946-9.27 10.536zm19.368-12.169c.798.062 1.105-.123 2.118-.185.154 0 4.39.185 5.096.216-.675-.401-1.474-.863-2.579-1.479-9.331.585-6.2 1.325-4.635 1.448z" fill="#ED8585"/><path d="M128.74 214.95l7.674 13.433c0 .03.031.03.031.061l2.394 4.221c12.401-8.01 28.271-18.362 29.345-21.073h.031c2.088-4.991-7.244-12.046-8.134-12.046-.768 0-18.97 9.15-27.289 13.34h-.031c-2.425 1.263-4.021 2.064-4.021 2.064z" fill="url(#paint1_linear_6_351)"/><path d="M128.74 214.95l7.674 13.432c0 .093.982 1.202 1.044 1.263 1.013 1.048 1.964 1.664 2.885 2.034 5.065-3.266 26.675-17.13 27.872-20.087-3.561.678-13.383 6.069-18.602 6.285-4.42.185-12.462-3.112-16.79-4.96h-.031l-4.052 2.033z" fill="#0063AA"/><path d="M133.775 265.137c-4.82 9.828-6.6 18.084-7.306 23.907-.583 4.683-.706 9.212-.706 9.212-1.075 18.392.552 22.059-3.806 23.784-5.464 2.095-11.757 3.45-17.651 2.742-.123-42.208.491-42.454-1.78-43.378-13.783-8.041-25.263-14.758-34.84-20.334-2.302-11.892-3.346-7.733-7.122-22.305-3.253-12.57-5.586-32.78.553-41.838 5.034-7.456 16.79-5.176 21.518-3.851.092 0 1.412.37 1.995.585 5.894 5.916 11.296 9.705 18.602 8.75 9.546-1.51 4.635-4.621 12.769 2.711 3.745 3.512 12.402 6.285 15.164 9.058 0 0 .031 0 .092.031 13.599 16.39 12.801 35.953 2.518 50.926z" fill="url(#paint2_linear_6_351)"/><path d="M120.268 208.049c-11.511 10.536-48.654 7.271-37.511-15.127.123-.246-1.872 5.484.706 9.828 3.438 5.823 16.484 10.105 25.57-3.451.859.617 10.314 8.257 11.235 8.75zm9.669 71.229c-3.837 11.553-5.341 28.22-5.065 40.359 0 0-.46.523-1.473 1.663v.031c-.031 0-.276.185-.307.216h-.031c-1.412 1.14-12.8 3.758-13.997 3.758 12.554-48.338 4.144-63.003 5.341-83.767.552-9.397 2.425-21.412 10.713-25.818-1.382.986-3.223 2.588-3.929 5.053-3.039 10.475 21.057 19.008 21.18 34.074.031 8.072-6.845 7.548-12.432 24.431z" fill="#0063AA"/><path d="M216.593 223.792a1.182 1.182 0 00-.891-.431c-1.412-.124-3.775 4.652-4.788 5.792-1.504 1.756-3.53 2.68-3.592 2.557 0 0 2.333-2.28 3.868-4.283 1.535-2.095 4.206-7.332 3.254-9.119-.522-.801-1.658-1.356-2.241-.986-.583.277-.491 1.109-.737 2.188-.613 3.358-3.468 6.562-6.384 8.287 3.837-4.282 5.065-9.551 3.959-14.603-2.977-1.14-1.688 2.957-3.223 6.593-.859 2.095-3.714 5.607-6.998 7.671-7.06 4.19-1.198-1.972-2.364-6.254-.307-1.294-1.351-2.834-2.087-2.68-.614.123-1.075 1.54-1.934 4.436-.675 2.65-.768 3.882-6.968 15.497-.123.154-.154.308-.276.462v.031c-.399.677-1.597 2.834-1.996 3.604.369.894 4.39 10.814 5.311 10.537 0-.031.03-.031.061-.093 1.013-2.033 9.976-5.823 17.742-11.276 6.355-3.543 9.301-4.528 9.301-11.399-.03-.893-.184-1.54-.307-1.91.185-.431.369-.832.614-1.294-.03-.031 0-.031 0-.031.154-.215.215-.462.307-.616v-.031c.676-1.478.706-2.187.369-2.649zm-6.293 11.307c-.092 0 2.486-2.927 2.548-2.989-.522 1.294-1.412 2.218-2.548 2.989z" fill="#FEB2B2"/><path d="M183.227 242.523a173.607 173.607 0 002.855 6.624c1.535.955 2.977 1.787 4.021 2.434 5.096-3.666 10.958-6.254 16.177-9.828-3.315-1.294-7.06-1.756-10.56-2.218-.982-.123-9.884-1.756-10.252-1.078a157.435 157.435 0 01-2.241 4.066zm27.042-7.394c-.03.093-.03.185 0 .216.123.246.891 0 1.535-.216 1.842-1.355 3.407-4.128 3.5-6.716.214-.4.429-.801.644-1.263 0-.031.031-.031.031-.031s-1.688 3.173-3.1 4.991c-.676 1.479-1.474 2.28-2.61 3.019.031 0 .031 0 0 0z" fill="#ED8585"/><path d="M199.587 247.423c-5.801 8.257-33.673 50.033-43.742 46.552-4.635-1.633-36.436-41.992-37.019-62.449 0-8.38 4.574-17.561 9.209-18.3 7.029-1.14 22.776 28.251 30.113 51.234.337.216 1.933 1.14 2.271 1.325.491-1.202 16.791-22.829 25.447-28.19 10.775.955 13.721 9.828 13.721 9.828z" fill="url(#paint3_linear_6_351)"/><path d="M157.196 274.78c2.548-1.818 3.223-6.408 3.438-9.335-.153.216-.246.339-.246.339l-2.056-1.171c-.307 4.899-1.136 10.167-1.136 10.167z" fill="#0063AA"/><path d="M126.039 170.001c-1.289 1.879-2.578 3.727-3.867 5.607-.829 4.066-1.658 8.102-2.487 12.138-5.494 1.756-11.48 1.941-14.427 1.294-3.346-.524-6.477-1.756-8.963-3.913-14.366-12.384-4.206-51.788 27.749-43.1.798 5.946.583 12.046-.767 18.053.89 3.297 1.811 6.624 2.762 9.921z" fill="#FEB2B2"/><path d="M124.075 155.336c-.706-.524-1.535-2.095-3.039-2.003-1.074.093-2.946.093-6.63 11.831-1.166 3.727-1.811 5.607-1.903 6.315-.338 3.636-.184 10.537 3.868 17.13-6.14 1.294-9.823.585-11.112.431-4.206-4.221-8.166-15.558-9.363-23.26 5.126-10.691 21.273-24.924 28.363-16.205.338 1.571 0 4.19-.184 5.761z" fill="#ED8585"/><path d="M124.781 210.267c-.89-.062-2.057-.801-3.223-.863-29.192-.985-29.315 5.762-42.883-12.569-17.25-23.322-10.375-55.825-4.635-64.02 6.446-9.304 25.11-13.617 30.666-11.584 1.197.431 3.038 1.232 4.42 1.941 4.113 2.095 12.861 4.806 14.366 17.622 1.074 8.965 1.78 9.859 1.074 12.262a3.355 3.355 0 00-.184 1.047c-.123-.462-.491-1.324-1.504-2.526-2.579-3.05-.584-4.991-4.513 1.602-3.929 6.562-4.573 10.475-7.029 14.295-2.486 3.82.307-2.988.092-5.761-.031-.308-.092-.708-.276-.77-.491-.123-1.474 1.818-2.272 3.574-1.811 1.201-4.297 3.204-5.801 6.408-.092.215.276 1.756-.031 2.896-1.228 4.837 1.504 10.167 4.482 14.141 5.249 6.993 11.756 7.024 17.251 22.305z" fill="#FFBC52"/><path d="M120.023 143.105c-.522 5.083-5.433 9.889-9.423 9.612-1.597-.092-1.719-.955-3.715-1.109-3.53-.277-6.292 2.064-7.06 2.742-1.78 1.633-2.486 3.389-3.376 5.638-2.15 5.484-1.658 9.427-2.395 9.489-.675.062-1.995-3.173-1.933-6.593.092-3.266 1.473-7.825 1.596-8.195.522-1.725.951-2.711.49-3.204-.705-.77-2.977.031-4.48 1.016-3.746 2.404-4.513 6.717-5.127 6.563-.921-.247 1.044-9.458-.154-9.828-.736-.216-2.885 2.865-3.315 3.512-2.701 3.943-4.512 10.198-5.832 10.167-1.688-.062-5.157-13.217 1.29-25.91 1.995-4.868 4.941-7.055 9.454-9.335 6.691-3.358 12.37-5.237 19.553-3.05 11.266 3.45 14.857 14.141 14.427 18.485z" fill="#FFAB26"/><path d="M108.205 163.654l-.337-.185c-5.495 3.944-9.056 10.475-4.758 15.99.092.369.184.708.307 1.078-11.143-4.837-7.552-19.471 1.32-25.263-1.996-13.586-13.63-24.4-27.995-24 11.081-7.085 31.985 9.335 31.463 32.38z" fill="#DB8F16"/><path d="M100.162 166.889c1.78-7.363 7.95-12.878 12.954-10.968-13.353-5.052-20.198 19.132-10.468 22.86l1.627.616c-4.45-1.694-5.249-7.794-4.113-12.508z" fill="#3E3895"/><path d="M107.13 156.692c4.911-2.835 9.577-.247 10.436 5.822.86 6.07-2.425 13.279-7.305 16.113-4.912 2.835-9.578.216-10.437-5.823-.86-6.069 2.425-13.278 7.306-16.112z" fill="#292562"/><path d="M113.392 158.694c-1.381-.524-1.842-.77-2.64-.832-8.165-.893-13.66 16.113-5.924 19.07l1.504.586c-8.196-3.143-1.259-21.997 7.06-18.824z" fill="#FF8900"/><path d="M108.358 159.218c3.929-2.28 7.643-.185 8.349 4.652.675 4.837-1.934 10.598-5.863 12.878-3.929 2.279-7.643.184-8.349-4.653-.676-4.836 1.933-10.628 5.863-12.877zm20.966 21.75l-2.425-.924 10.16-2.064 2.456.924-10.191 2.064z" fill="#F13F00"/><path d="M114.098 182.817l-2.456-.924-2.363-7.579 2.456.924 2.363 7.579z" fill="#3E3895"/><path d="M111.734 175.238c-3.069-1.171-1.688-.431-6.262-3.389 3.1 1.202 1.688.462 6.262 3.389z" fill="#3E3895"/><path d="M116.584 162.453c1.566 10.998 1.29 8.041 1.351 13.494l11.419 5.021 10.16-2.064.031 1.263-9.976 3.913-15.471-1.263-2.364-7.579-3.806-2.434c-3.07-5.977 2.272-10.721 8.656-10.351z" fill="#292562"/><path d="M116.431 167.875c-.277-.093-1.013-.401-1.29-.432-2.701-.431-5.371 4.714-3.407 7.179.491.616 1.013.708 1.78.986-3.407-1.325-.521-9.058 2.917-7.733z" fill="#FF8900"/><path d="M117.904 170.031c.675 4.837-5.157 8.103-5.832 3.389-.706-4.837 5.157-8.102 5.832-3.389z" fill="#F13F00"/><path d="M106.455 162.637l5.71-2.156 1.749.986-5.709 2.187-1.75-1.017z" fill="#292562"/><path d="M111.55 167.659l5.71-2.156c-.307-20.334-12.586-41.838-32.508-40.976-4.819 2.188-7.428 4.314-9.73 6.47 2.333-.986 7.643-3.111 13.567-1.633 9.21 2.249 22.132 16.514 22.961 38.295z" fill="#292562"/><path d="M111.551 167.659c-.062-1.109-2.978-.739-3.653.462-1.228 2.188-.062 4.498.03 4.683l-2.455-.924a11.014 11.014 0 01.982-9.243c.522.309 1.258.709 1.719 1.017.645-28.405-30.85-46.428-37.142-23.815-.123.277-.492 1.263-.645 1.541l-.645-.308c8.565-30.47 42.453-3.605 41.809 26.587z" fill="#3E3895"/><path d="M115.91 160.142c-.154-.062-.583-.247-.737-.247-1.565-.246-3.131 2.742-1.964 4.19.276.339.583.401 1.043.586-2.056-.77-.368-5.268 1.658-4.529z" fill="#FF8900"/><path d="M116.77 161.436c.399 2.803-3.008 4.713-3.407 1.972-.4-2.835 3.008-4.745 3.407-1.972z" fill="#F13F00"/></g><defs><linearGradient id="paint0_linear_6_351" x1="60.46" y1="488.32" x2="59.745" y2="215.689" gradientUnits="userSpaceOnUse"><stop stop-color="#D33073"/><stop offset="1" stop-color="#FE405A"/></linearGradient><linearGradient id="paint1_linear_6_351" x1="128.75" y1="216.109" x2="168.529" y2="216.109" gradientUnits="userSpaceOnUse"><stop stop-color="#109CF1"/><stop offset="1" stop-color="#1E70FA"/></linearGradient><linearGradient id="paint2_linear_6_351" x1="94.832" y1="280.922" x2="110.977" y2="93.043" gradientUnits="userSpaceOnUse"><stop stop-color="#109CF1"/><stop offset="1" stop-color="#1E70FA"/></linearGradient><linearGradient id="paint3_linear_6_351" x1="118.845" y1="253.671" x2="199.593" y2="253.671" gradientUnits="userSpaceOnUse"><stop stop-color="#109CF1"/><stop offset="1" stop-color="#1E70FA"/></linearGradient><clipPath id="clip0_6_351"><path fill="#fff" d="M0 0h594v545H0z"/></clipPath></defs></svg>