<svg width="48" height="48" fill="none" xmlns="http://www.w3.org/2000/svg"><path d="M36.902 34.536C40.052 31.294 42 26.877 42 22c0-9.94-8.06-18-18-18S6 12.06 6 22c0 4.877 1.948 9.294 5.098 12.536.018.019.03.04.048.059l.059.059.142.142 11.239 11.239a2 2 0 002.828 0l11.239-11.239.142-.142.059-.059c.019-.019.031-.041.048-.059z" fill="url(#paint0_linear_8_9)"/><path d="M24 32a9.5 9.5 0 100-19 9.5 9.5 0 000 19z" fill="url(#paint1_radial_8_9)"/><path d="M24 30a8 8 0 100-16 8 8 0 000 16z" fill="#F9F9F9"/><path d="M24 30c-4.747 0-8.935 2.368-11.467 5.982l10.052 10.052a2 2 0 002.828 0l10.052-10.052C32.935 32.368 28.747 30 24 30z" fill="url(#paint2_radial_8_9)"/><path d="M24 32c-4.196 0-7.884 2.157-10.03 5.42l8.616 8.615a2 2 0 002.828 0l8.615-8.615C31.884 34.157 28.196 32 23.999 32z" fill="#009444"/><defs><radialGradient id="paint1_radial_8_9" cx="0" cy="0" r="1" gradientUnits="userSpaceOnUse" gradientTransform="matrix(9.5 0 0 9.5 24 22.5)"><stop offset=".177"/><stop offset="1" stop-opacity="0"/></radialGradient><radialGradient id="paint2_radial_8_9" cx="0" cy="0" r="1" gradientUnits="userSpaceOnUse" gradientTransform="translate(23.842 43.905) scale(13.637)"><stop offset=".177"/><stop offset="1" stop-opacity="0"/></radialGradient><linearGradient id="paint0_linear_8_9" x1="11.274" y1="9.271" x2="36.726" y2="34.723" gradientUnits="userSpaceOnUse"><stop stop-color="#2ED47A"/><stop offset="1" stop-color="#39B54A"/></linearGradient></defs></svg>