<svg width="50" height="50" fill="none" xmlns="http://www.w3.org/2000/svg"><path d="M33.333 0s-3.208.056-5.22 2.07c-2.015 2.013-2.071 5.222-2.071 5.222s3.208-.057 5.22-2.071C33.278 3.208 33.334 0 33.334 0zm-1.666 16.132C30.46 11.846 28.68 9.375 25 9.375c-3.681 0-5.46 2.47-6.667 6.757-1.126 4-5.29 6.797-7.877 10.951h29.087c-2.586-4.154-6.75-6.95-7.876-10.95z" fill="#109CF1"/><path d="M20 45.833c1.797 0 3.06-.566 5-.566s3.203.566 5 .566c6.444 0 11.667-5.17 11.667-11.55 0-2.905-.883-5.207-2.123-7.2H10.456c-1.24 1.994-2.123 4.296-2.123 7.2 0 6.38 5.223 11.55 11.667 11.55z" fill="#0C86CF"/></svg>