<svg width="50" height="50" viewBox="0 0 50 50" fill="none" xmlns="http://www.w3.org/2000/svg">
<path d="M33.3334 0C33.3334 0 30.1251 0.05625 28.1126 2.07083C26.098 4.08333 26.0417 7.29167 26.0417 7.29167C26.0417 7.29167 29.2501 7.23542 31.2626 5.22083C33.2772 3.20833 33.3334 0 33.3334 0Z" fill="#109CF1"/>
<path d="M31.6667 16.1323C30.4605 11.8458 28.6813 9.375 25 9.375C21.3188 9.375 19.5396 11.8458 18.3334 16.1323C17.2073 20.1323 13.0428 22.9292 10.4563 27.0833H39.5428C36.9573 22.9292 32.7928 20.1333 31.6667 16.1323Z" fill="#109CF1"/>
<path d="M19.9999 45.8333C21.7968 45.8333 23.0603 45.2666 24.9999 45.2666C26.9395 45.2666 28.203 45.8333 29.9999 45.8333C36.4437 45.8333 41.6666 40.6624 41.6666 34.2833C41.6666 31.378 40.7843 29.076 39.5437 27.0833H10.4562C9.21554 29.077 8.33325 31.3791 8.33325 34.2833C8.33325 40.6624 13.5562 45.8333 19.9999 45.8333Z" fill="#0C86CF"/>
</svg>
